<?xml version="1.0" encoding="UTF-8" standalone="no"?><svg xmlns="http://www.w3.org/2000/svg" xmlns:xlink="http://www.w3.org/1999/xlink" contentScriptType="application/ecmascript" contentStyleType="text/css" height="204px" preserveAspectRatio="none" style="width:80px;height:204px;" version="1.1" viewBox="0 0 80 204" width="80px" zoomAndPan="magnify"><defs><filter height="300%" id="fovv8oiu20pmk" width="300%" x="-1" y="-1"><feGaussianBlur result="blurOut" stdDeviation="2.0"/><feColorMatrix in="blurOut" result="blurOut2" type="matrix" values="0 0 0 0 0 0 0 0 0 0 0 0 0 0 0 0 0 0 .4 0"/><feOffset dx="4.0" dy="4.0" in="blurOut2" result="blurOut3"/><feBlend in="SourceGraphic" in2="blurOut3" mode="normal"/></filter></defs><g><!--class A--><a target="_top" xlink:actuate="onRequest" xlink:href="http://something.org/A" xlink:show="new" xlink:title="tooltip&#10;with&#10;  various&#10;  lines" xlink:type="simple"><rect fill="#FEFECE" filter="url(#fovv8oiu20pmk)" height="48" id="A" style="stroke: #A80036; stroke-width: 1.5;" width="40" x="17.5" y="8"/><ellipse cx="32.5" cy="24" fill="#ADD1B2" rx="11" ry="11" style="stroke: #A80036; stroke-width: 1.0;"/><path d="M35.4688,29.6406 Q34.8906,29.9375 34.25,30.0859 Q33.6094,30.2344 32.9063,30.2344 Q30.4063,30.2344 29.0859,28.5859 Q27.7656,26.9375 27.7656,23.8125 Q27.7656,20.6875 29.0859,19.0313 Q30.4063,17.375 32.9063,17.375 Q33.6094,17.375 34.2578,17.5313 Q34.9063,17.6875 35.4688,17.9844 L35.4688,20.7031 Q34.8438,20.125 34.25,19.8516 Q33.6563,19.5781 33.0313,19.5781 Q31.6875,19.5781 31,20.6484 Q30.3125,21.7188 30.3125,23.8125 Q30.3125,25.9063 31,26.9766 Q31.6875,28.0469 33.0313,28.0469 Q33.6563,28.0469 34.25,27.7734 Q34.8438,27.5 35.4688,26.9219 L35.4688,29.6406 Z "/><text fill="#000000" font-family="sans-serif" font-size="12" lengthAdjust="spacingAndGlyphs" textLength="8" x="46.5" y="28.1543">A</text><line style="stroke: #A80036; stroke-width: 1.5;" x1="18.5" x2="56.5" y1="40" y2="40"/><line style="stroke: #A80036; stroke-width: 1.5;" x1="18.5" x2="56.5" y1="48" y2="48"/></a><!--class B--><rect fill="#FEFECE" filter="url(#fovv8oiu20pmk)" height="60.8047" id="B" style="stroke: #A80036; stroke-width: 1.5;" width="63" x="6" y="133"/><ellipse cx="31.35" cy="149" fill="#ADD1B2" rx="11" ry="11" style="stroke: #A80036; stroke-width: 1.0;"/><path d="M34.3188,154.6406 Q33.7406,154.9375 33.1,155.0859 Q32.4594,155.2344 31.7563,155.2344 Q29.2563,155.2344 27.9359,153.5859 Q26.6156,151.9375 26.6156,148.8125 Q26.6156,145.6875 27.9359,144.0313 Q29.2563,142.375 31.7563,142.375 Q32.4594,142.375 33.1078,142.5313 Q33.7563,142.6875 34.3188,142.9844 L34.3188,145.7031 Q33.6938,145.125 33.1,144.8516 Q32.5063,144.5781 31.8813,144.5781 Q30.5375,144.5781 29.85,145.6484 Q29.1625,146.7188 29.1625,148.8125 Q29.1625,150.9063 29.85,151.9766 Q30.5375,153.0469 31.8813,153.0469 Q32.5063,153.0469 33.1,152.7734 Q33.6938,152.5 34.3188,151.9219 L34.3188,154.6406 Z "/><text fill="#000000" font-family="sans-serif" font-size="12" lengthAdjust="spacingAndGlyphs" textLength="8" x="47.65" y="153.1543">B</text><line style="stroke: #A80036; stroke-width: 1.5;" x1="7" x2="68" y1="165" y2="165"/><a target="_top" xlink:actuate="onRequest" xlink:href="http://blabla" xlink:show="new" xlink:title="another&#10;tooltip&#10;nice" xlink:type="simple"><text fill="#000000" font-family="sans-serif" font-size="11" lengthAdjust="spacingAndGlyphs" textLength="51" x="12" y="179.2104">a:Integer</text></a><line style="stroke: #A80036; stroke-width: 1.5;" x1="7" x2="68" y1="185.8047" y2="185.8047"/><!--link A to B--><path d="M37.5,56.152 C37.5,77.541 37.5,109.4319 37.5,132.7114 " fill="none" id="A-B" style="stroke: #A80036; stroke-width: 1.0;"/><text fill="#000000" font-family="sans-serif" font-size="13" lengthAdjust="spacingAndGlyphs" textLength="8" x="38.5" y="99.0669">R</text><a target="_top" xlink:actuate="onRequest" xlink:href="http://toto" xlink:show="new" xlink:title="A" xlink:type="simple"><text fill="#0000FF" font-family="sans-serif" font-size="13" lengthAdjust="spacingAndGlyphs" text-decoration="underline" textLength="4" x="50.5" y="99.0669">.</text><line style="stroke: #0000FF; stroke-width: 1.0;" x1="50.5" x2="54.5" y1="101.0669" y2="101.0669"/></a><!--
@startuml
class A [[http://something.org/A{tooltip\nwith\n  various\n  lines}test]]

class B {
    a:Integer [[[http://blabla{another\ntooltip\nnice}]]]
}

A - - B : R [[http://toto{A}.]]



@enduml

PlantUML version 1.2017.15(Mon Jul 03 18:45:34 CEST 2017)
(GPL source distribution)
Java Runtime: Java(TM) SE Runtime Environment
JVM: Java HotSpot(TM) 64-Bit Server VM
Java Version: 1.8.0_101-b13
Operating System: Linux
OS Version: 4.4.0-71-generic
Default Encoding: UTF-8
Language: en
Country: US
--></g></svg>