<?xml version="1.0" encoding="UTF-8" standalone="no"?><svg xmlns="http://www.w3.org/2000/svg" xmlns:xlink="http://www.w3.org/1999/xlink" contentScriptType="application/ecmascript" contentStyleType="text/css" height="970px" preserveAspectRatio="none" style="width:1304px;height:970px;" version="1.1" viewBox="0 0 1304 970" width="1304px" zoomAndPan="magnify"><defs><filter height="300%" id="f1nr877e8eo4lw" width="300%" x="-1" y="-1"><feGaussianBlur result="blurOut" stdDeviation="2.0"/><feColorMatrix in="blurOut" result="blurOut2" type="matrix" values="0 0 0 0 0 0 0 0 0 0 0 0 0 0 0 0 0 0 .4 0"/><feOffset dx="4.0" dy="4.0" in="blurOut2" result="blurOut3"/><feBlend in="SourceGraphic" in2="blurOut3" mode="normal"/></filter></defs><g><!--cluster buildings--><polygon fill="#EEDDEE" filter="url(#f1nr877e8eo4lw)" points="22,24,99,24,106,46.2969,689,46.2969,689,670,22,670,22,24" style="stroke: #000000; stroke-width: 2.0;"/><line style="stroke: #000000; stroke-width: 2.0;" x1="22" x2="106" y1="46.2969" y2="46.2969"/><text fill="#000000" font-family="sans-serif" font-size="14" font-weight="bold" lengthAdjust="spacingAndGlyphs" textLength="71" x="26" y="38.9951">buildings</text><!--cluster occupation--><polygon fill="#EEDDEE" filter="url(#f1nr877e8eo4lw)" points="898,325,991,325,998,347.2969,1282,347.2969,1282,800.5,898,800.5,898,325" style="stroke: #000000; stroke-width: 2.0;"/><line style="stroke: #000000; stroke-width: 2.0;" x1="898" x2="998" y1="347.2969" y2="347.2969"/><text fill="#000000" font-family="sans-serif" font-size="14" font-weight="bold" lengthAdjust="spacingAndGlyphs" textLength="87" x="902" y="339.9951">occupation</text><!--cluster economy--><polygon fill="#EEDDEE" filter="url(#f1nr877e8eo4lw)" points="713,542,791,542,798,564.2969,874,564.2969,874,958,713,958,713,542" style="stroke: #000000; stroke-width: 2.0;"/><line style="stroke: #000000; stroke-width: 2.0;" x1="713" x2="798" y1="564.2969" y2="564.2969"/><text fill="#000000" font-family="sans-serif" font-size="14" font-weight="bold" lengthAdjust="spacingAndGlyphs" textLength="72" x="717" y="556.9951">economy</text><!--class Residence--><a target="_top" xlink:actuate="onRequest" xlink:href="http://something.org/Residence" xlink:show="new" xlink:title="tooltoip for Residence" xlink:type="simple"><rect fill="#FEFECE" filter="url(#f1nr877e8eo4lw)" height="184.0469" id="Residence" style="stroke: #A80036; stroke-width: 1.5;" width="210" x="249" y="78"/><ellipse cx="317.25" cy="94" fill="#ADD1B2" rx="11" ry="11" style="stroke: #A80036; stroke-width: 1.0;"/><path d="M320.2188,99.6406 Q319.6406,99.9375 319,100.0859 Q318.3594,100.2344 317.6563,100.2344 Q315.1563,100.2344 313.8359,98.5859 Q312.5156,96.9375 312.5156,93.8125 Q312.5156,90.6875 313.8359,89.0313 Q315.1563,87.375 317.6563,87.375 Q318.3594,87.375 319.0078,87.5313 Q319.6563,87.6875 320.2188,87.9844 L320.2188,90.7031 Q319.5938,90.125 319,89.8516 Q318.4063,89.5781 317.7813,89.5781 Q316.4375,89.5781 315.75,90.6484 Q315.0625,91.7188 315.0625,93.8125 Q315.0625,95.9063 315.75,96.9766 Q316.4375,98.0469 317.7813,98.0469 Q318.4063,98.0469 319,97.7734 Q319.5938,97.5 320.2188,96.9219 L320.2188,99.6406 Z "/><text fill="#000000" font-family="sans-serif" font-size="12" lengthAdjust="spacingAndGlyphs" textLength="65" x="337.75" y="98.1543">Residence</text><line style="stroke: #A80036; stroke-width: 1.5;" x1="250" x2="458" y1="110" y2="110"/><text fill="#000000" font-family="sans-serif" font-size="11" lengthAdjust="spacingAndGlyphs" textLength="78" x="255" y="124.2104">name : String</text><text fill="#000000" font-family="sans-serif" font-size="11" lengthAdjust="spacingAndGlyphs" textLength="97" x="255" y="137.0151">floorMin : Integer</text><text fill="#000000" font-family="sans-serif" font-size="11" lengthAdjust="spacingAndGlyphs" textLength="100" x="255" y="149.8198">floorMax : Integer</text><text fill="#000000" font-family="sans-serif" font-size="11" lengthAdjust="spacingAndGlyphs" textLength="112" x="255" y="162.6245">category : Category</text><text fill="#000000" font-family="sans-serif" font-size="11" lengthAdjust="spacingAndGlyphs" textLength="158" x="255" y="175.4292">maxNbOfFreeUnits : Integer</text><text fill="#000000" font-family="sans-serif" font-size="11" lengthAdjust="spacingAndGlyphs" textLength="81" x="255" y="188.2339">avgRate : Real</text><line style="stroke: #A80036; stroke-width: 1.0;" x1="250" x2="458" y1="194.8281" y2="194.8281"/><text fill="#000000" font-family="sans-serif" font-size="11" lengthAdjust="spacingAndGlyphs" textLength="162" x="255" y="209.0386">bedrooms():Set(Bedroom) =</text><text fill="#000000" font-family="sans-serif" font-size="11" lengthAdjust="spacingAndGlyphs" textLength="198" x="255" y="221.8433">usefulBedrooms():Set(Bedroom) =</text><text fill="#000000" font-family="sans-serif" font-size="11" lengthAdjust="spacingAndGlyphs" textLength="170" x="255" y="234.6479">bathrooms():Set(Bathroom) =</text><line style="stroke: #A80036; stroke-width: 1.0;" x1="250" x2="458" y1="241.2422" y2="241.2422"/><text fill="#000000" font-family="sans-serif" font-size="11" lengthAdjust="spacingAndGlyphs" textLength="79" x="255" y="255.4526">inv floorOrder</text></a><!--class Room--><a target="_top" xlink:actuate="onRequest" xlink:href="http://something.org/Room" xlink:show="new" xlink:title="tooltoip for Room" xlink:type="simple"><rect fill="#FEFECE" filter="url(#f1nr877e8eo4lw)" height="86.4141" id="Room" style="stroke: #A80036; stroke-width: 1.5;" width="146" x="281" y="379"/><ellipse cx="332.25" cy="395" fill="#ADD1B2" rx="11" ry="11" style="stroke: #A80036; stroke-width: 1.0;"/><path d="M335.2188,400.6406 Q334.6406,400.9375 334,401.0859 Q333.3594,401.2344 332.6563,401.2344 Q330.1563,401.2344 328.8359,399.5859 Q327.5156,397.9375 327.5156,394.8125 Q327.5156,391.6875 328.8359,390.0313 Q330.1563,388.375 332.6563,388.375 Q333.3594,388.375 334.0078,388.5313 Q334.6563,388.6875 335.2188,388.9844 L335.2188,391.7031 Q334.5938,391.125 334,390.8516 Q333.4063,390.5781 332.7813,390.5781 Q331.4375,390.5781 330.75,391.6484 Q330.0625,392.7188 330.0625,394.8125 Q330.0625,396.9063 330.75,397.9766 Q331.4375,399.0469 332.7813,399.0469 Q333.4063,399.0469 334,398.7734 Q334.5938,398.5 335.2188,397.9219 L335.2188,400.6406 Z "/><text fill="#000000" font-family="sans-serif" font-size="12" lengthAdjust="spacingAndGlyphs" textLength="35" x="352.75" y="399.1543">Room</text><line style="stroke: #A80036; stroke-width: 1.5;" x1="282" x2="426" y1="411" y2="411"/><text fill="#000000" font-family="sans-serif" font-size="11" lengthAdjust="spacingAndGlyphs" textLength="96" x="287" y="425.2104">number : Integer</text><text fill="#000000" font-family="sans-serif" font-size="11" lengthAdjust="spacingAndGlyphs" textLength="78" x="287" y="438.0151">floor : Integer</text><text fill="#000000" font-family="sans-serif" font-size="11" lengthAdjust="spacingAndGlyphs" textLength="134" x="287" y="450.8198">isOutOfOrder : Boolean</text><line style="stroke: #A80036; stroke-width: 1.0;" x1="282" x2="426" y1="457.4141" y2="457.4141"/></a><!--class Bathroom--><a target="_top" xlink:actuate="onRequest" xlink:href="http://something.org/Bathroom" xlink:show="new" xlink:title="tooltoip for Bathroom" xlink:type="simple"><rect fill="#FEFECE" filter="url(#f1nr877e8eo4lw)" height="60.8047" id="Bathroom" style="stroke: #A80036; stroke-width: 1.5;" width="161" x="38.5" y="567.5"/><ellipse cx="84.25" cy="583.5" fill="#ADD1B2" rx="11" ry="11" style="stroke: #A80036; stroke-width: 1.0;"/><path d="M87.2188,589.1406 Q86.6406,589.4375 86,589.5859 Q85.3594,589.7344 84.6563,589.7344 Q82.1563,589.7344 80.8359,588.0859 Q79.5156,586.4375 79.5156,583.3125 Q79.5156,580.1875 80.8359,578.5313 Q82.1563,576.875 84.6563,576.875 Q85.3594,576.875 86.0078,577.0313 Q86.6563,577.1875 87.2188,577.4844 L87.2188,580.2031 Q86.5938,579.625 86,579.3516 Q85.4063,579.0781 84.7813,579.0781 Q83.4375,579.0781 82.75,580.1484 Q82.0625,581.2188 82.0625,583.3125 Q82.0625,585.4063 82.75,586.4766 Q83.4375,587.5469 84.7813,587.5469 Q85.4063,587.5469 86,587.2734 Q86.5938,587 87.2188,586.4219 L87.2188,589.1406 Z "/><text fill="#000000" font-family="sans-serif" font-size="12" lengthAdjust="spacingAndGlyphs" textLength="61" x="104.75" y="587.6543">Bathroom</text><line style="stroke: #A80036; stroke-width: 1.5;" x1="39.5" x2="198.5" y1="599.5" y2="599.5"/><text fill="#000000" font-family="sans-serif" font-size="11" lengthAdjust="spacingAndGlyphs" textLength="149" x="44.5" y="613.7104">isOnTheLanding : Boolean</text><line style="stroke: #A80036; stroke-width: 1.0;" x1="39.5" x2="198.5" y1="620.3047" y2="620.3047"/></a><!--class Bedroom--><a target="_top" xlink:actuate="onRequest" xlink:href="http://something.org/Bedroom" xlink:show="new" xlink:title="tooltoip for Bedroom" xlink:type="simple"><rect fill="#FEFECE" filter="url(#f1nr877e8eo4lw)" height="112.0234" id="Bedroom" style="stroke: #A80036; stroke-width: 1.5;" width="159" x="320.5" y="542"/><ellipse cx="367.75" cy="558" fill="#ADD1B2" rx="11" ry="11" style="stroke: #A80036; stroke-width: 1.0;"/><path d="M370.7188,563.6406 Q370.1406,563.9375 369.5,564.0859 Q368.8594,564.2344 368.1563,564.2344 Q365.6563,564.2344 364.3359,562.5859 Q363.0156,560.9375 363.0156,557.8125 Q363.0156,554.6875 364.3359,553.0313 Q365.6563,551.375 368.1563,551.375 Q368.8594,551.375 369.5078,551.5313 Q370.1563,551.6875 370.7188,551.9844 L370.7188,554.7031 Q370.0938,554.125 369.5,553.8516 Q368.9063,553.5781 368.2813,553.5781 Q366.9375,553.5781 366.25,554.6484 Q365.5625,555.7188 365.5625,557.8125 Q365.5625,559.9063 366.25,560.9766 Q366.9375,562.0469 368.2813,562.0469 Q368.9063,562.0469 369.5,561.7734 Q370.0938,561.5 370.7188,560.9219 L370.7188,563.6406 Z "/><text fill="#000000" font-family="sans-serif" font-size="12" lengthAdjust="spacingAndGlyphs" textLength="56" x="388.25" y="562.1543">Bedroom</text><line style="stroke: #A80036; stroke-width: 1.5;" x1="321.5" x2="478.5" y1="574" y2="574"/><text fill="#000000" font-family="sans-serif" font-size="11" lengthAdjust="spacingAndGlyphs" textLength="143" x="326.5" y="588.2104">nbOfSingleBeds : Integer</text><text fill="#000000" font-family="sans-serif" font-size="11" lengthAdjust="spacingAndGlyphs" textLength="147" x="326.5" y="601.0151">nbOfDoubleBeds : Integer</text><text fill="#000000" font-family="sans-serif" font-size="11" lengthAdjust="spacingAndGlyphs" textLength="59" x="326.5" y="613.8198">rate : Real</text><text fill="#000000" font-family="sans-serif" font-size="11" lengthAdjust="spacingAndGlyphs" textLength="139" x="326.5" y="626.6245">isNonSmoking : Boolean</text><text fill="#000000" font-family="sans-serif" font-size="11" lengthAdjust="spacingAndGlyphs" textLength="108" x="326.5" y="639.4292">nbOfUnits : Integer</text><line style="stroke: #A80036; stroke-width: 1.0;" x1="321.5" x2="478.5" y1="646.0234" y2="646.0234"/></a><!--class Person--><a target="_top" xlink:actuate="onRequest" xlink:href="http://something.org/Person" xlink:show="new" xlink:title="tooltoip for Person" xlink:type="simple"><rect fill="#FEFECE" filter="url(#f1nr877e8eo4lw)" height="86.4141" id="Person" style="stroke: #A80036; stroke-width: 1.5;" width="106" x="923" y="379"/><ellipse cx="951.5" cy="395" fill="#ADD1B2" rx="11" ry="11" style="stroke: #A80036; stroke-width: 1.0;"/><path d="M954.4688,400.6406 Q953.8906,400.9375 953.25,401.0859 Q952.6094,401.2344 951.9063,401.2344 Q949.4063,401.2344 948.0859,399.5859 Q946.7656,397.9375 946.7656,394.8125 Q946.7656,391.6875 948.0859,390.0313 Q949.4063,388.375 951.9063,388.375 Q952.6094,388.375 953.2578,388.5313 Q953.9063,388.6875 954.4688,388.9844 L954.4688,391.7031 Q953.8438,391.125 953.25,390.8516 Q952.6563,390.5781 952.0313,390.5781 Q950.6875,390.5781 950,391.6484 Q949.3125,392.7188 949.3125,394.8125 Q949.3125,396.9063 950,397.9766 Q950.6875,399.0469 952.0313,399.0469 Q952.6563,399.0469 953.25,398.7734 Q953.8438,398.5 954.4688,397.9219 L954.4688,400.6406 Z "/><text fill="#000000" font-family="sans-serif" font-size="12" lengthAdjust="spacingAndGlyphs" textLength="44" x="968.5" y="399.1543">Person</text><line style="stroke: #A80036; stroke-width: 1.5;" x1="924" x2="1028" y1="411" y2="411"/><text fill="#000000" font-family="sans-serif" font-size="11" lengthAdjust="spacingAndGlyphs" textLength="78" x="929" y="425.2104">name : String</text><text fill="#000000" font-family="sans-serif" font-size="11" lengthAdjust="spacingAndGlyphs" textLength="73" x="929" y="438.0151">age : Integer</text><text fill="#000000" font-family="sans-serif" font-size="11" lengthAdjust="spacingAndGlyphs" textLength="94" x="929" y="450.8198">gender : Gender</text><line style="stroke: #A80036; stroke-width: 1.0;" x1="924" x2="1028" y1="457.4141" y2="457.4141"/></a><!--class Resident--><a target="_top" xlink:actuate="onRequest" xlink:href="http://something.org/Resident" xlink:show="new" xlink:title="tooltoip for Resident" xlink:type="simple"><rect fill="#FEFECE" filter="url(#f1nr877e8eo4lw)" height="60.8047" id="Resident" style="stroke: #A80036; stroke-width: 1.5;" width="124" x="914" y="567.5"/><ellipse cx="945.65" cy="583.5" fill="#ADD1B2" rx="11" ry="11" style="stroke: #A80036; stroke-width: 1.0;"/><path d="M948.6188,589.1406 Q948.0406,589.4375 947.4,589.5859 Q946.7594,589.7344 946.0563,589.7344 Q943.5563,589.7344 942.2359,588.0859 Q940.9156,586.4375 940.9156,583.3125 Q940.9156,580.1875 942.2359,578.5313 Q943.5563,576.875 946.0563,576.875 Q946.7594,576.875 947.4078,577.0313 Q948.0563,577.1875 948.6188,577.4844 L948.6188,580.2031 Q947.9938,579.625 947.4,579.3516 Q946.8063,579.0781 946.1813,579.0781 Q944.8375,579.0781 944.15,580.1484 Q943.4625,581.2188 943.4625,583.3125 Q943.4625,585.4063 944.15,586.4766 Q944.8375,587.5469 946.1813,587.5469 Q946.8063,587.5469 947.4,587.2734 Q947.9938,587 948.6188,586.4219 L948.6188,589.1406 Z "/><text fill="#000000" font-family="sans-serif" font-size="12" lengthAdjust="spacingAndGlyphs" textLength="55" x="963.35" y="587.6543">Resident</text><line style="stroke: #A80036; stroke-width: 1.5;" x1="915" x2="1037" y1="599.5" y2="599.5"/><text fill="#000000" font-family="sans-serif" font-size="11" lengthAdjust="spacingAndGlyphs" textLength="112" x="920" y="613.7104">isSmoker : Boolean</text><line style="stroke: #A80036; stroke-width: 1.0;" x1="915" x2="1037" y1="620.3047" y2="620.3047"/></a><!--class Tenant--><a target="_top" xlink:actuate="onRequest" xlink:href="http://something.org/Tenant" xlink:show="new" xlink:title="tooltoip for Tenant" xlink:type="simple"><rect fill="#FEFECE" filter="url(#f1nr877e8eo4lw)" height="60.8047" id="Tenant" style="stroke: #A80036; stroke-width: 1.5;" width="97" x="916.5" y="723.5"/><ellipse cx="940.95" cy="739.5" fill="#ADD1B2" rx="11" ry="11" style="stroke: #A80036; stroke-width: 1.0;"/><path d="M943.9188,745.1406 Q943.3406,745.4375 942.7,745.5859 Q942.0594,745.7344 941.3563,745.7344 Q938.8563,745.7344 937.5359,744.0859 Q936.2156,742.4375 936.2156,739.3125 Q936.2156,736.1875 937.5359,734.5313 Q938.8563,732.875 941.3563,732.875 Q942.0594,732.875 942.7078,733.0313 Q943.3563,733.1875 943.9188,733.4844 L943.9188,736.2031 Q943.2938,735.625 942.7,735.3516 Q942.1063,735.0781 941.4813,735.0781 Q940.1375,735.0781 939.45,736.1484 Q938.7625,737.2188 938.7625,739.3125 Q938.7625,741.4063 939.45,742.4766 Q940.1375,743.5469 941.4813,743.5469 Q942.1063,743.5469 942.7,743.2734 Q943.2938,743 943.9188,742.4219 L943.9188,745.1406 Z "/><text fill="#000000" font-family="sans-serif" font-size="12" lengthAdjust="spacingAndGlyphs" textLength="44" x="957.05" y="743.6543">Tenant</text><line style="stroke: #A80036; stroke-width: 1.5;" x1="917.5" x2="1012.5" y1="755.5" y2="755.5"/><text fill="#000000" font-family="sans-serif" font-size="11" lengthAdjust="spacingAndGlyphs" textLength="85" x="922.5" y="769.7104">paidRate : Real</text><line style="stroke: #A80036; stroke-width: 1.0;" x1="917.5" x2="1012.5" y1="776.3047" y2="776.3047"/></a><!--class Discount--><a target="_top" xlink:actuate="onRequest" xlink:href="http://something.org/Discount" xlink:show="new" xlink:title="tooltoip for Discount" xlink:type="simple"><rect fill="#FEFECE" filter="url(#f1nr877e8eo4lw)" height="73.6094" id="Discount" style="stroke: #A80036; stroke-width: 1.5;" width="128" x="729" y="868"/><ellipse cx="762.45" cy="884" fill="#ADD1B2" rx="11" ry="11" style="stroke: #A80036; stroke-width: 1.0;"/><path d="M765.4188,889.6406 Q764.8406,889.9375 764.2,890.0859 Q763.5594,890.2344 762.8563,890.2344 Q760.3563,890.2344 759.0359,888.5859 Q757.7156,886.9375 757.7156,883.8125 Q757.7156,880.6875 759.0359,879.0313 Q760.3563,877.375 762.8563,877.375 Q763.5594,877.375 764.2078,877.5313 Q764.8563,877.6875 765.4188,877.9844 L765.4188,880.7031 Q764.7938,880.125 764.2,879.8516 Q763.6063,879.5781 762.9813,879.5781 Q761.6375,879.5781 760.95,880.6484 Q760.2625,881.7188 760.2625,883.8125 Q760.2625,885.9063 760.95,886.9766 Q761.6375,888.0469 762.9813,888.0469 Q763.6063,888.0469 764.2,887.7734 Q764.7938,887.5 765.4188,886.9219 L765.4188,889.6406 Z "/><text fill="#000000" font-family="sans-serif" font-size="12" lengthAdjust="spacingAndGlyphs" textLength="55" x="780.55" y="888.1543">Discount</text><line style="stroke: #A80036; stroke-width: 1.5;" x1="730" x2="856" y1="900" y2="900"/><text fill="#000000" font-family="sans-serif" font-size="11" lengthAdjust="spacingAndGlyphs" textLength="116" x="735" y="914.2104">percentage : Integer</text><text fill="#000000" font-family="sans-serif" font-size="11" lengthAdjust="spacingAndGlyphs" textLength="73" x="735" y="927.0151">label : String</text><line style="stroke: #A80036; stroke-width: 1.0;" x1="730" x2="856" y1="933.6094" y2="933.6094"/></a><!--class Rent--><a target="_top" xlink:actuate="onRequest" xlink:href="http://something.org/Rent" xlink:show="new" xlink:title="tooltoip for Rent" xlink:type="simple"><rect fill="#FEFECE" filter="url(#f1nr877e8eo4lw)" height="73.6094" id="Rent" style="stroke: #A80036; stroke-width: 1.5;" width="96" x="729" y="717"/><ellipse cx="759.75" cy="733" fill="#ADD1B2" rx="11" ry="11" style="stroke: #A80036; stroke-width: 1.0;"/><path d="M762.7188,738.6406 Q762.1406,738.9375 761.5,739.0859 Q760.8594,739.2344 760.1563,739.2344 Q757.6563,739.2344 756.3359,737.5859 Q755.0156,735.9375 755.0156,732.8125 Q755.0156,729.6875 756.3359,728.0313 Q757.6563,726.375 760.1563,726.375 Q760.8594,726.375 761.5078,726.5313 Q762.1563,726.6875 762.7188,726.9844 L762.7188,729.7031 Q762.0938,729.125 761.5,728.8516 Q760.9063,728.5781 760.2813,728.5781 Q758.9375,728.5781 758.25,729.6484 Q757.5625,730.7188 757.5625,732.8125 Q757.5625,734.9063 758.25,735.9766 Q758.9375,737.0469 760.2813,737.0469 Q760.9063,737.0469 761.5,736.7734 Q762.0938,736.5 762.7188,735.9219 L762.7188,738.6406 Z "/><text fill="#000000" font-family="sans-serif" font-size="12" lengthAdjust="spacingAndGlyphs" textLength="29" x="777.25" y="737.1543">Rent</text><line style="stroke: #A80036; stroke-width: 1.5;" x1="730" x2="824" y1="749" y2="749"/><text fill="#000000" font-family="sans-serif" font-size="11" lengthAdjust="spacingAndGlyphs" textLength="84" x="735" y="763.2104">discount : Real</text><text fill="#000000" font-family="sans-serif" font-size="11" lengthAdjust="spacingAndGlyphs" textLength="59" x="735" y="776.0151">rate : Real</text><line style="stroke: #A80036; stroke-width: 1.0;" x1="730" x2="824" y1="782.6094" y2="782.6094"/></a><ellipse cx="777" cy="598" fill="#000000" rx="2" ry="2" style="stroke: none; stroke-width: 1.0;"/><!--class Category--><rect fill="#FEFECE" filter="url(#f1nr877e8eo4lw)" height="99.2188" id="Category" style="stroke: #A80036; stroke-width: 1.5;" width="88" x="705" y="120.5"/><ellipse cx="720" cy="136.5" fill="#EB937F" rx="11" ry="11" style="stroke: #A80036; stroke-width: 1.0;"/><path d="M724.1094,142.5 L716.3906,142.5 L716.3906,130.1094 L724.1094,130.1094 L724.1094,132.2656 L718.8438,132.2656 L718.8438,134.9375 L723.6094,134.9375 L723.6094,137.0938 L718.8438,137.0938 L718.8438,140.3438 L724.1094,140.3438 L724.1094,142.5 Z "/><text fill="#000000" font-family="sans-serif" font-size="12" lengthAdjust="spacingAndGlyphs" textLength="56" x="734" y="140.6543">Category</text><line style="stroke: #A80036; stroke-width: 1.5;" x1="706" x2="792" y1="152.5" y2="152.5"/><text fill="#000000" font-family="sans-serif" font-size="11" lengthAdjust="spacingAndGlyphs" textLength="51" x="711" y="166.7104">economy</text><text fill="#000000" font-family="sans-serif" font-size="11" lengthAdjust="spacingAndGlyphs" textLength="51" x="711" y="179.5151">standard</text><text fill="#000000" font-family="sans-serif" font-size="11" lengthAdjust="spacingAndGlyphs" textLength="51" x="711" y="192.3198">premium</text><text fill="#000000" font-family="sans-serif" font-size="11" lengthAdjust="spacingAndGlyphs" textLength="47" x="711" y="205.1245">prestige</text><line style="stroke: #A80036; stroke-width: 1.5;" x1="706" x2="792" y1="211.7188" y2="211.7188"/><!--class Gender--><rect fill="#FEFECE" filter="url(#f1nr877e8eo4lw)" height="73.6094" id="Gender" style="stroke: #A80036; stroke-width: 1.5;" width="78" x="828" y="133"/><ellipse cx="843" cy="149" fill="#EB937F" rx="11" ry="11" style="stroke: #A80036; stroke-width: 1.0;"/><path d="M847.1094,155 L839.3906,155 L839.3906,142.6094 L847.1094,142.6094 L847.1094,144.7656 L841.8438,144.7656 L841.8438,147.4375 L846.6094,147.4375 L846.6094,149.5938 L841.8438,149.5938 L841.8438,152.8438 L847.1094,152.8438 L847.1094,155 Z "/><text fill="#000000" font-family="sans-serif" font-size="12" lengthAdjust="spacingAndGlyphs" textLength="46" x="857" y="153.1543">Gender</text><line style="stroke: #A80036; stroke-width: 1.5;" x1="829" x2="905" y1="165" y2="165"/><text fill="#000000" font-family="sans-serif" font-size="11" lengthAdjust="spacingAndGlyphs" textLength="28" x="834" y="179.2104">male</text><text fill="#000000" font-family="sans-serif" font-size="11" lengthAdjust="spacingAndGlyphs" textLength="39" x="834" y="192.0151">female</text><line style="stroke: #A80036; stroke-width: 1.5;" x1="829" x2="905" y1="198.6094" y2="198.6094"/><!--link Room to Bathroom--><path d="M281.033,477.027 C240.86,506.772 192.536,542.552 159.173,567.255 " fill="none" id="Room-Bathroom" style="stroke: #A80036; stroke-width: 1.0;"/><polygon fill="none" points="276.874,471.396,297.113,465.121,285.205,482.648,276.874,471.396" style="stroke: #A80036; stroke-width: 1.0;"/><!--link Room to Bedroom--><path d="M447.264,431.763 C529.336,441.633 639.878,460.931 667,495 C721.085,562.938 576.456,585.657 479.519,593.232 " fill="none" id="Room-Bedroom" style="stroke: #A80036; stroke-width: 1.0;"/><polygon fill="none" points="446.417,438.712,427.343,429.483,448.009,424.803,446.417,438.712" style="stroke: #A80036; stroke-width: 1.0;"/><!--link Person to Resident--><path d="M976,485.499 C976,513.354 976,544.858 976,567.255 " fill="none" id="Person-Resident" style="stroke: #A80036; stroke-width: 1.0;"/><polygon fill="none" points="969,485.121,976,465.121,983,485.121,969,485.121" style="stroke: #A80036; stroke-width: 1.0;"/><!--link Resident to Tenant--><path d="M972.434,648.917 C970.678,673.511 968.619,702.329 967.114,723.398 " fill="none" id="Resident-Tenant" style="stroke: #A80036; stroke-width: 1.0;"/><polygon fill="none" points="965.472,648.143,973.879,628.693,979.436,649.141,965.472,648.143" style="stroke: #A80036; stroke-width: 1.0;"/><!--link Residence to Room--><path d="M354,275.561 C354,311.862 354,350.527 354,378.859 " fill="none" id="Residence-Room" style="stroke: #A80036; stroke-width: 1.0;"/><polygon fill="#A80036" points="354,262.317,350,268.317,354,274.317,358,268.317,354,262.317" style="stroke: #A80036; stroke-width: 1.0;"/><text fill="#000000" font-family="sans-serif" font-size="13" lengthAdjust="spacingAndGlyphs" textLength="100" x="355" y="305.0669">ContainsRooms</text><a target="_top" xlink:actuate="onRequest" xlink:href="http://something" xlink:show="new" xlink:title="&quot;1..1 residence&quot; -- ContainsRooms -- &quot;0..* rooms&quot;" xlink:type="simple"><text fill="#0000FF" font-family="sans-serif" font-size="13" lengthAdjust="spacingAndGlyphs" text-decoration="underline" textLength="4" x="455" y="305.0669">.</text><line style="stroke: #0000FF; stroke-width: 1.0;" x1="455" x2="459" y1="307.0669" y2="307.0669"/></a><!--link Bathroom to Bedroom--><path d="M199.523,598 C237.473,598 282.609,598 320.436,598 " fill="none" id="Bathroom-Bedroom" style="stroke: #A80036; stroke-width: 1.0;"/><text fill="#000000" font-family="sans-serif" font-size="13" lengthAdjust="spacingAndGlyphs" textLength="80" x="218" y="591.0669">IsInBedroom</text><a target="_top" xlink:actuate="onRequest" xlink:href="http://something" xlink:show="new" xlink:title="&quot;0..3 bathrooms&quot; -- IsInBedroom -- &quot;0..1 bedroom&quot;" xlink:type="simple"><text fill="#0000FF" font-family="sans-serif" font-size="13" lengthAdjust="spacingAndGlyphs" text-decoration="underline" textLength="4" x="298" y="591.0669">.</text><line style="stroke: #0000FF; stroke-width: 1.0;" x1="298" x2="302" y1="593.0669" y2="593.0669"/></a><!--link Resident to Resident--><path d="M1038.04,589.755 C1057.58,589.88 1073,592.629 1073,598 C1073,603.371 1057.58,606.12 1038.04,606.245 " fill="none" id="Resident-Resident" style="stroke: #A80036; stroke-width: 1.0;"/><text fill="#000000" font-family="sans-serif" font-size="13" lengthAdjust="spacingAndGlyphs" textLength="75" x="1079" y="602.5669">IsTutoredBy</text><a target="_top" xlink:actuate="onRequest" xlink:href="http://something" xlink:show="new" xlink:title="&quot;0..* tutored&quot; -- IsTutoredBy -- &quot;0..2 tutors&quot;" xlink:type="simple"><text fill="#0000FF" font-family="sans-serif" font-size="13" lengthAdjust="spacingAndGlyphs" text-decoration="underline" textLength="4" x="1154" y="602.5669">.</text><line style="stroke: #0000FF; stroke-width: 1.0;" x1="1154" x2="1158" y1="604.5669" y2="604.5669"/></a><!--link Resident to Resident--><path d="M1038.13,583.918 C1095.16,578.095 1164,582.789 1164,598 C1164,613.211 1095.16,617.905 1038.13,612.082 " fill="none" id="Resident-Resident" style="stroke: #A80036; stroke-width: 1.0;"/><text fill="#000000" font-family="sans-serif" font-size="13" lengthAdjust="spacingAndGlyphs" textLength="85" x="1170" y="602.5669">IsMarriedWith</text><a target="_top" xlink:actuate="onRequest" xlink:href="http://something" xlink:show="new" xlink:title="&quot;0..1 resident&quot; -- IsMarriedWith -- &quot;0..1 consort&quot;" xlink:type="simple"><text fill="#0000FF" font-family="sans-serif" font-size="13" lengthAdjust="spacingAndGlyphs" text-decoration="underline" textLength="4" x="1255" y="602.5669">.</text><line style="stroke: #0000FF; stroke-width: 1.0;" x1="1255" x2="1259" y1="604.5669" y2="604.5669"/></a><!--link Bedroom to Resident--><path d="M435.995,541.88 C447.754,528.253 462.08,515.467 478.5,508 C512.022,492.757 777.914,501.863 874,534 C896.403,541.493 918.902,554.841 937.048,567.415 " fill="none" id="Bedroom-Resident" style="stroke: #A80036; stroke-width: 1.0;"/><text fill="#000000" font-family="sans-serif" font-size="13" lengthAdjust="spacingAndGlyphs" textLength="85" x="479.5" y="508.0669">IsOccupiedBy</text><a target="_top" xlink:actuate="onRequest" xlink:href="http://something" xlink:show="new" xlink:title="&quot;1..1 occupiedRoom&quot; -- IsOccupiedBy -- &quot;0..* occupants&quot;" xlink:type="simple"><text fill="#0000FF" font-family="sans-serif" font-size="13" lengthAdjust="spacingAndGlyphs" text-decoration="underline" textLength="4" x="564.5" y="508.0669">.</text><line style="stroke: #0000FF; stroke-width: 1.0;" x1="564.5" x2="568.5" y1="510.0669" y2="510.0669"/></a><!--link Rent to Discount--><path d="M782.282,804.191 C784.509,824.931 787.055,848.642 789.107,867.747 " fill="none" id="Rent-Discount" style="stroke: #A80036; stroke-width: 1.0;"/><polygon fill="#A80036" points="780.873,791.069,777.5361,797.4616,782.1534,803.0005,785.4904,796.6079,780.873,791.069" style="stroke: #A80036; stroke-width: 1.0;"/><text fill="#000000" font-family="sans-serif" font-size="13" lengthAdjust="spacingAndGlyphs" textLength="88" x="787" y="834.0669">HasDiscounts</text><a target="_top" xlink:actuate="onRequest" xlink:href="http://something" xlink:show="new" xlink:title="&quot;1..1 rent&quot; -- HasDiscounts -- &quot;0..* discounts&quot;" xlink:type="simple"><text fill="#0000FF" font-family="sans-serif" font-size="13" lengthAdjust="spacingAndGlyphs" text-decoration="underline" textLength="4" x="875" y="834.0669">.</text><line style="stroke: #0000FF; stroke-width: 1.0;" x1="875" x2="879" y1="836.0669" y2="836.0669"/></a><!--link Bedroom to apoint54--><path d="M479.952,598 C583.7,598 753.998,598 774.88,598 " fill="none" id="Bedroom-apoint54" style="stroke: #A80036; stroke-width: 1.0;"/><text fill="#000000" font-family="sans-serif" font-size="13" lengthAdjust="spacingAndGlyphs" textLength="29" x="610.75" y="614.0669">Rent</text><a target="_top" xlink:actuate="onRequest" xlink:href="http://something" xlink:show="new" xlink:title="&quot;1..* rentedBedrooms&quot; -- Rent -- &quot;0..1 tenant&quot;" xlink:type="simple"><text fill="#0000FF" font-family="sans-serif" font-size="13" lengthAdjust="spacingAndGlyphs" text-decoration="underline" textLength="4" x="639.75" y="614.0669">.</text><line style="stroke: #0000FF; stroke-width: 1.0;" x1="639.75" x2="643.75" y1="616.0669" y2="616.0669"/></a><!--link apoint54 to Tenant--><path d="M778.201,599.983 C789.49,609.231 877.724,681.508 928.786,723.336 " fill="none" id="apoint54-Tenant" style="stroke: #A80036; stroke-width: 1.0;"/><!--link apoint54 to Rent--><path d="M777,600.331 C777,610.356 777,674.748 777,716.641 " fill="none" id="apoint54-Rent" style="stroke: #A80036; stroke-width: 1.0; stroke-dasharray: 7.0,7.0;"/><!--
@startuml

enum Category {
    economy
    standard
    premium
    prestige
}

enum Gender {
    male
    female
}

package buildings <<Folder>> #EEDDEE {


class Residence [[http://something.org/Residence{tooltoip for Residence}]]
class Residence {
{field}  name : String
{field}  floorMin : Integer
{field}  floorMax : Integer
{field}  category : Category
{field}  maxNbOfFreeUnits : Integer
{field}  avgRate : Real
- -
{method}    bedrooms():Set(Bedroom) =
{method}    usefulBedrooms():Set(Bedroom) =
{method}    bathrooms():Set(Bathroom) =
- -
inv floorOrder
}


class Room [[http://something.org/Room{tooltoip for Room}]]
class Room {
{field}  number : Integer
{field}  floor : Integer
{field}  isOutOfOrder : Boolean
- -
}



class Bathroom [[http://something.org/Bathroom{tooltoip for Bathroom}]]
class Bathroom {
{field}  isOnTheLanding : Boolean
- -
}

Room <|- - Bathroom


class Bedroom [[http://something.org/Bedroom{tooltoip for Bedroom}]]
class Bedroom {
{field}  nbOfSingleBeds : Integer
{field}  nbOfDoubleBeds : Integer
{field}  rate : Real
{field}  isNonSmoking : Boolean
{field}  nbOfUnits : Integer
- -
}

Room <|- - Bedroom

}

package occupation <<Folder>> #EEDDEE {

class Person [[http://something.org/Person{tooltoip for Person}]]
class Person {
{field}  name : String
{field}  age : Integer
{field}  gender : Gender
- -
}



class Resident [[http://something.org/Resident{tooltoip for Resident}]]
class Resident {
{field}  isSmoker : Boolean
- -
}

Person <|- - Resident


class Tenant [[http://something.org/Tenant{tooltoip for Tenant}]]
class Tenant {
{field}  paidRate : Real
- -
}

Resident <|- - Tenant

}

package economy <<Folder>> #EEDDEE {

class Discount [[http://something.org/Discount{tooltoip for Discount}]]
class Discount {
{field}  percentage : Integer
{field}  label : String
- -
}



Residence  *- -  Room : ContainsRooms[[http://something{"1..1 residence" - - ContainsRooms - - "0..* rooms"}.]]

Bathroom  -  Bedroom : IsInBedroom[[http://something{"0..3 bathrooms" - - IsInBedroom - - "0..1 bedroom"}.]]

Resident  -  Resident : IsTutoredBy[[http://something{"0..* tutored" - - IsTutoredBy - - "0..2 tutors"}.]]

Resident  -  Resident : IsMarriedWith[[http://something{"0..1 resident" - - IsMarriedWith - - "0..1 consort"}.]]

Bedroom  -  Resident : IsOccupiedBy[[http://something{"1..1 occupiedRoom" - - IsOccupiedBy - - "0..* occupants"}.]]

Rent  *- -  Discount : HasDiscounts[[http://something{"1..1 rent" - - HasDiscounts - - "0..* discounts"}.]]

Bedroom  -  Tenant : Rent[[http://something{"1..* rentedBedrooms" - - Rent - - "0..1 tenant"}.]]

class Rent [[http://something.org/Rent{tooltoip for Rent}]]
class Rent {
{field}  discount : Real
{field}  rate : Real
- -
}



( Bedroom, Tenant) .. Rent
}

@enduml

PlantUML version 1.2017.15(Mon Jul 03 18:45:34 CEST 2017)
(GPL source distribution)
Java Runtime: Java(TM) SE Runtime Environment
JVM: Java HotSpot(TM) 64-Bit Server VM
Java Version: 1.8.0_101-b13
Operating System: Linux
OS Version: 4.4.0-71-generic
Default Encoding: UTF-8
Language: en
Country: US
--></g></svg>