<?xml version="1.0" encoding="UTF-8" standalone="no"?><svg xmlns="http://www.w3.org/2000/svg" xmlns:xlink="http://www.w3.org/1999/xlink" contentScriptType="application/ecmascript" contentStyleType="text/css" height="655px" preserveAspectRatio="none" style="width:1393px;height:655px;" version="1.1" viewBox="0 0 1393 655" width="1393px" zoomAndPan="magnify"><defs><filter height="300%" id="f1bmvu6uu0xw2b" width="300%" x="-1" y="-1"><feGaussianBlur result="blurOut" stdDeviation="2.0"/><feColorMatrix in="blurOut" result="blurOut2" type="matrix" values="0 0 0 0 0 0 0 0 0 0 0 0 0 0 0 0 0 0 .4 0"/><feOffset dx="4.0" dy="4.0" in="blurOut2" result="blurOut3"/><feBlend in="SourceGraphic" in2="blurOut3" mode="normal"/></filter></defs><g><!--class Category--><rect fill="#FEFECE" filter="url(#f1bmvu6uu0xw2b)" height="86.4141" id="Category" style="stroke: #A80036; stroke-width: 1.5;" width="88" x="1181.5" y="192.5"/><ellipse cx="1196.5" cy="208.5" fill="#EB937F" rx="11" ry="11" style="stroke: #A80036; stroke-width: 1.0;"/><path d="M1200.6094,214.5 L1192.8906,214.5 L1192.8906,202.1094 L1200.6094,202.1094 L1200.6094,204.2656 L1195.3438,204.2656 L1195.3438,206.9375 L1200.1094,206.9375 L1200.1094,209.0938 L1195.3438,209.0938 L1195.3438,212.3438 L1200.6094,212.3438 L1200.6094,214.5 Z "/><text fill="#000000" font-family="sans-serif" font-size="12" lengthAdjust="spacingAndGlyphs" textLength="56" x="1210.5" y="212.6543">Category</text><line style="stroke: #A80036; stroke-width: 1.5;" x1="1182.5" x2="1268.5" y1="224.5" y2="224.5"/><text fill="#000000" font-family="sans-serif" font-size="11" lengthAdjust="spacingAndGlyphs" textLength="51" x="1187.5" y="238.7104">standard</text><text fill="#000000" font-family="sans-serif" font-size="11" lengthAdjust="spacingAndGlyphs" textLength="51" x="1187.5" y="251.5151">premium</text><text fill="#000000" font-family="sans-serif" font-size="11" lengthAdjust="spacingAndGlyphs" textLength="47" x="1187.5" y="264.3198">prestige</text><line style="stroke: #A80036; stroke-width: 1.5;" x1="1182.5" x2="1268.5" y1="270.9141" y2="270.9141"/><!--class Gender--><rect fill="#FEFECE" filter="url(#f1bmvu6uu0xw2b)" height="60.8047" id="Gender" style="stroke: #A80036; stroke-width: 1.5;" width="78" x="1304.5" y="205"/><ellipse cx="1319.5" cy="221" fill="#EB937F" rx="11" ry="11" style="stroke: #A80036; stroke-width: 1.0;"/><path d="M1323.6094,227 L1315.8906,227 L1315.8906,214.6094 L1323.6094,214.6094 L1323.6094,216.7656 L1318.3438,216.7656 L1318.3438,219.4375 L1323.1094,219.4375 L1323.1094,221.5938 L1318.3438,221.5938 L1318.3438,224.8438 L1323.6094,224.8438 L1323.6094,227 Z "/><text fill="#000000" font-family="sans-serif" font-size="12" lengthAdjust="spacingAndGlyphs" textLength="46" x="1333.5" y="225.1543">Gender</text><line style="stroke: #A80036; stroke-width: 1.5;" x1="1305.5" x2="1381.5" y1="237" y2="237"/><text fill="#000000" font-family="sans-serif" font-size="11" lengthAdjust="spacingAndGlyphs" textLength="39" x="1310.5" y="251.2104">female</text><line style="stroke: #A80036; stroke-width: 1.5;" x1="1305.5" x2="1381.5" y1="257.8047" y2="257.8047"/><!--class Residence--><rect fill="#FEFECE" filter="url(#f1bmvu6uu0xw2b)" height="188.8516" id="Residence" style="stroke: #A80036; stroke-width: 1.5;" width="549" x="202" y="141"/><ellipse cx="439.75" cy="157" fill="#ADD1B2" rx="11" ry="11" style="stroke: #A80036; stroke-width: 1.0;"/><path d="M442.7188,162.6406 Q442.1406,162.9375 441.5,163.0859 Q440.8594,163.2344 440.1563,163.2344 Q437.6563,163.2344 436.3359,161.5859 Q435.0156,159.9375 435.0156,156.8125 Q435.0156,153.6875 436.3359,152.0313 Q437.6563,150.375 440.1563,150.375 Q440.8594,150.375 441.5078,150.5313 Q442.1563,150.6875 442.7188,150.9844 L442.7188,153.7031 Q442.0938,153.125 441.5,152.8516 Q440.9063,152.5781 440.2813,152.5781 Q438.9375,152.5781 438.25,153.6484 Q437.5625,154.7188 437.5625,156.8125 Q437.5625,158.9063 438.25,159.9766 Q438.9375,161.0469 440.2813,161.0469 Q440.9063,161.0469 441.5,160.7734 Q442.0938,160.5 442.7188,159.9219 L442.7188,162.6406 Z "/><text fill="#000000" font-family="sans-serif" font-size="12" lengthAdjust="spacingAndGlyphs" textLength="65" x="460.25" y="161.1543">Residence</text><line style="stroke: #A80036; stroke-width: 1.5;" x1="203" x2="750" y1="173" y2="173"/><text fill="#000000" font-family="sans-serif" font-size="11" lengthAdjust="spacingAndGlyphs" textLength="78" x="208" y="187.2104">name : String</text><text fill="#000000" font-family="sans-serif" font-size="11" lengthAdjust="spacingAndGlyphs" textLength="97" x="208" y="200.0151">floorMin : Integer</text><text fill="#000000" font-family="sans-serif" font-size="11" lengthAdjust="spacingAndGlyphs" textLength="100" x="208" y="212.8198">floorMax : Integer</text><text fill="#000000" font-family="sans-serif" font-size="11" lengthAdjust="spacingAndGlyphs" textLength="112" x="208" y="225.6245">category : Category</text><text fill="#000000" font-family="sans-serif" font-size="11" lengthAdjust="spacingAndGlyphs" textLength="158" x="208" y="238.4292">maxNbOfFreeUnits : Integer</text><text fill="#000000" font-family="sans-serif" font-size="11" lengthAdjust="spacingAndGlyphs" textLength="81" x="208" y="251.2339">avgRate : Real</text><text fill="#000000" font-family="sans-serif" font-size="11" lengthAdjust="spacingAndGlyphs" textLength="77" x="208" y="264.0386">class Room {</text><text fill="#000000" font-family="sans-serif" font-size="11" lengthAdjust="spacingAndGlyphs" textLength="96" x="208" y="276.8433">number : Integer</text><text fill="#000000" font-family="sans-serif" font-size="11" lengthAdjust="spacingAndGlyphs" textLength="78" x="208" y="289.6479">floor : Integer</text><text fill="#000000" font-family="sans-serif" font-size="11" lengthAdjust="spacingAndGlyphs" textLength="134" x="208" y="302.4526">isOutOfOrder : Boolean</text><line style="stroke: #A80036; stroke-width: 1.5;" x1="203" x2="750" y1="309.0469" y2="309.0469"/><text fill="#000000" font-family="sans-serif" font-size="11" lengthAdjust="spacingAndGlyphs" textLength="537" x="208" y="323.2573">bedrooms():Set(Bedroom) =usefulBedrooms():Set(Bedroom) =bathrooms():Set(Bathroom) =}</text><!--class Bathroom--><rect fill="#FEFECE" filter="url(#f1bmvu6uu0xw2b)" height="60.8047" id="Bathroom" style="stroke: #A80036; stroke-width: 1.5;" width="161" x="6" y="205"/><ellipse cx="51.75" cy="221" fill="#ADD1B2" rx="11" ry="11" style="stroke: #A80036; stroke-width: 1.0;"/><path d="M54.7188,226.6406 Q54.1406,226.9375 53.5,227.0859 Q52.8594,227.2344 52.1563,227.2344 Q49.6563,227.2344 48.3359,225.5859 Q47.0156,223.9375 47.0156,220.8125 Q47.0156,217.6875 48.3359,216.0313 Q49.6563,214.375 52.1563,214.375 Q52.8594,214.375 53.5078,214.5313 Q54.1563,214.6875 54.7188,214.9844 L54.7188,217.7031 Q54.0938,217.125 53.5,216.8516 Q52.9063,216.5781 52.2813,216.5781 Q50.9375,216.5781 50.25,217.6484 Q49.5625,218.7188 49.5625,220.8125 Q49.5625,222.9063 50.25,223.9766 Q50.9375,225.0469 52.2813,225.0469 Q52.9063,225.0469 53.5,224.7734 Q54.0938,224.5 54.7188,223.9219 L54.7188,226.6406 Z "/><text fill="#000000" font-family="sans-serif" font-size="12" lengthAdjust="spacingAndGlyphs" textLength="61" x="72.25" y="225.1543">Bathroom</text><line style="stroke: #A80036; stroke-width: 1.5;" x1="7" x2="166" y1="237" y2="237"/><text fill="#000000" font-family="sans-serif" font-size="11" lengthAdjust="spacingAndGlyphs" textLength="149" x="12" y="251.2104">isOnTheLanding : Boolean</text><line style="stroke: #A80036; stroke-width: 1.5;" x1="7" x2="166" y1="257.8047" y2="257.8047"/><!--class Room--><rect fill="#FEFECE" filter="url(#f1bmvu6uu0xw2b)" height="48" id="Room" style="stroke: #A80036; stroke-width: 1.5;" width="67" x="443" y="420"/><ellipse cx="458" cy="436" fill="#ADD1B2" rx="11" ry="11" style="stroke: #A80036; stroke-width: 1.0;"/><path d="M460.9688,441.6406 Q460.3906,441.9375 459.75,442.0859 Q459.1094,442.2344 458.4063,442.2344 Q455.9063,442.2344 454.5859,440.5859 Q453.2656,438.9375 453.2656,435.8125 Q453.2656,432.6875 454.5859,431.0313 Q455.9063,429.375 458.4063,429.375 Q459.1094,429.375 459.7578,429.5313 Q460.4063,429.6875 460.9688,429.9844 L460.9688,432.7031 Q460.3438,432.125 459.75,431.8516 Q459.1563,431.5781 458.5313,431.5781 Q457.1875,431.5781 456.5,432.6484 Q455.8125,433.7188 455.8125,435.8125 Q455.8125,437.9063 456.5,438.9766 Q457.1875,440.0469 458.5313,440.0469 Q459.1563,440.0469 459.75,439.7734 Q460.3438,439.5 460.9688,438.9219 L460.9688,441.6406 Z "/><text fill="#000000" font-family="sans-serif" font-size="12" lengthAdjust="spacingAndGlyphs" textLength="35" x="472" y="440.1543">Room</text><line style="stroke: #A80036; stroke-width: 1.5;" x1="444" x2="509" y1="452" y2="452"/><line style="stroke: #A80036; stroke-width: 1.5;" x1="444" x2="509" y1="460" y2="460"/><!--class Bedroom--><rect fill="#FEFECE" filter="url(#f1bmvu6uu0xw2b)" height="112.0234" id="Bedroom" style="stroke: #A80036; stroke-width: 1.5;" width="159" x="786" y="179.5"/><ellipse cx="833.25" cy="195.5" fill="#ADD1B2" rx="11" ry="11" style="stroke: #A80036; stroke-width: 1.0;"/><path d="M836.2188,201.1406 Q835.6406,201.4375 835,201.5859 Q834.3594,201.7344 833.6563,201.7344 Q831.1563,201.7344 829.8359,200.0859 Q828.5156,198.4375 828.5156,195.3125 Q828.5156,192.1875 829.8359,190.5313 Q831.1563,188.875 833.6563,188.875 Q834.3594,188.875 835.0078,189.0313 Q835.6563,189.1875 836.2188,189.4844 L836.2188,192.2031 Q835.5938,191.625 835,191.3516 Q834.4063,191.0781 833.7813,191.0781 Q832.4375,191.0781 831.75,192.1484 Q831.0625,193.2188 831.0625,195.3125 Q831.0625,197.4063 831.75,198.4766 Q832.4375,199.5469 833.7813,199.5469 Q834.4063,199.5469 835,199.2734 Q835.5938,199 836.2188,198.4219 L836.2188,201.1406 Z "/><text fill="#000000" font-family="sans-serif" font-size="12" lengthAdjust="spacingAndGlyphs" textLength="56" x="853.75" y="199.6543">Bedroom</text><line style="stroke: #A80036; stroke-width: 1.5;" x1="787" x2="944" y1="211.5" y2="211.5"/><text fill="#000000" font-family="sans-serif" font-size="11" lengthAdjust="spacingAndGlyphs" textLength="143" x="792" y="225.7104">nbOfSingleBeds : Integer</text><text fill="#000000" font-family="sans-serif" font-size="11" lengthAdjust="spacingAndGlyphs" textLength="147" x="792" y="238.5151">nbOfDoubleBeds : Integer</text><text fill="#000000" font-family="sans-serif" font-size="11" lengthAdjust="spacingAndGlyphs" textLength="59" x="792" y="251.3198">rate : Real</text><text fill="#000000" font-family="sans-serif" font-size="11" lengthAdjust="spacingAndGlyphs" textLength="139" x="792" y="264.1245">isNonSmoking : Boolean</text><text fill="#000000" font-family="sans-serif" font-size="11" lengthAdjust="spacingAndGlyphs" textLength="108" x="792" y="276.9292">nbOfUnits : Integer</text><line style="stroke: #A80036; stroke-width: 1.5;" x1="787" x2="944" y1="283.5234" y2="283.5234"/><!--class Person--><rect fill="#FEFECE" filter="url(#f1bmvu6uu0xw2b)" height="86.4141" id="Person" style="stroke: #A80036; stroke-width: 1.5;" width="106" x="812.5" y="558"/><ellipse cx="841" cy="574" fill="#ADD1B2" rx="11" ry="11" style="stroke: #A80036; stroke-width: 1.0;"/><path d="M843.9688,579.6406 Q843.3906,579.9375 842.75,580.0859 Q842.1094,580.2344 841.4063,580.2344 Q838.9063,580.2344 837.5859,578.5859 Q836.2656,576.9375 836.2656,573.8125 Q836.2656,570.6875 837.5859,569.0313 Q838.9063,567.375 841.4063,567.375 Q842.1094,567.375 842.7578,567.5313 Q843.4063,567.6875 843.9688,567.9844 L843.9688,570.7031 Q843.3438,570.125 842.75,569.8516 Q842.1563,569.5781 841.5313,569.5781 Q840.1875,569.5781 839.5,570.6484 Q838.8125,571.7188 838.8125,573.8125 Q838.8125,575.9063 839.5,576.9766 Q840.1875,578.0469 841.5313,578.0469 Q842.1563,578.0469 842.75,577.7734 Q843.3438,577.5 843.9688,576.9219 L843.9688,579.6406 Z "/><text fill="#000000" font-family="sans-serif" font-size="12" lengthAdjust="spacingAndGlyphs" textLength="44" x="858" y="578.1543">Person</text><line style="stroke: #A80036; stroke-width: 1.5;" x1="813.5" x2="917.5" y1="590" y2="590"/><text fill="#000000" font-family="sans-serif" font-size="11" lengthAdjust="spacingAndGlyphs" textLength="78" x="818.5" y="604.2104">name : String</text><text fill="#000000" font-family="sans-serif" font-size="11" lengthAdjust="spacingAndGlyphs" textLength="73" x="818.5" y="617.0151">age : Integer</text><text fill="#000000" font-family="sans-serif" font-size="11" lengthAdjust="spacingAndGlyphs" textLength="94" x="818.5" y="629.8198">gender : Gender</text><line style="stroke: #A80036; stroke-width: 1.5;" x1="813.5" x2="917.5" y1="636.4141" y2="636.4141"/><!--class Resident--><rect fill="#FEFECE" filter="url(#f1bmvu6uu0xw2b)" height="60.8047" id="Resident" style="stroke: #A80036; stroke-width: 1.5;" width="124" x="803.5" y="413.5"/><ellipse cx="835.15" cy="429.5" fill="#ADD1B2" rx="11" ry="11" style="stroke: #A80036; stroke-width: 1.0;"/><path d="M838.1188,435.1406 Q837.5406,435.4375 836.9,435.5859 Q836.2594,435.7344 835.5563,435.7344 Q833.0563,435.7344 831.7359,434.0859 Q830.4156,432.4375 830.4156,429.3125 Q830.4156,426.1875 831.7359,424.5313 Q833.0563,422.875 835.5563,422.875 Q836.2594,422.875 836.9078,423.0313 Q837.5563,423.1875 838.1188,423.4844 L838.1188,426.2031 Q837.4938,425.625 836.9,425.3516 Q836.3063,425.0781 835.6813,425.0781 Q834.3375,425.0781 833.65,426.1484 Q832.9625,427.2188 832.9625,429.3125 Q832.9625,431.4063 833.65,432.4766 Q834.3375,433.5469 835.6813,433.5469 Q836.3063,433.5469 836.9,433.2734 Q837.4938,433 838.1188,432.4219 L838.1188,435.1406 Z "/><text fill="#000000" font-family="sans-serif" font-size="12" lengthAdjust="spacingAndGlyphs" textLength="55" x="852.85" y="433.6543">Resident</text><line style="stroke: #A80036; stroke-width: 1.5;" x1="804.5" x2="926.5" y1="445.5" y2="445.5"/><text fill="#000000" font-family="sans-serif" font-size="11" lengthAdjust="spacingAndGlyphs" textLength="112" x="809.5" y="459.7104">isSmoker : Boolean</text><line style="stroke: #A80036; stroke-width: 1.5;" x1="804.5" x2="926.5" y1="466.3047" y2="466.3047"/><!--class Tenant--><rect fill="#FEFECE" filter="url(#f1bmvu6uu0xw2b)" height="60.8047" id="Tenant" style="stroke: #A80036; stroke-width: 1.5;" width="97" x="1050" y="205"/><ellipse cx="1074.45" cy="221" fill="#ADD1B2" rx="11" ry="11" style="stroke: #A80036; stroke-width: 1.0;"/><path d="M1077.4188,226.6406 Q1076.8406,226.9375 1076.2,227.0859 Q1075.5594,227.2344 1074.8563,227.2344 Q1072.3563,227.2344 1071.0359,225.5859 Q1069.7156,223.9375 1069.7156,220.8125 Q1069.7156,217.6875 1071.0359,216.0313 Q1072.3563,214.375 1074.8563,214.375 Q1075.5594,214.375 1076.2078,214.5313 Q1076.8563,214.6875 1077.4188,214.9844 L1077.4188,217.7031 Q1076.7938,217.125 1076.2,216.8516 Q1075.6063,216.5781 1074.9813,216.5781 Q1073.6375,216.5781 1072.95,217.6484 Q1072.2625,218.7188 1072.2625,220.8125 Q1072.2625,222.9063 1072.95,223.9766 Q1073.6375,225.0469 1074.9813,225.0469 Q1075.6063,225.0469 1076.2,224.7734 Q1076.7938,224.5 1077.4188,223.9219 L1077.4188,226.6406 Z "/><text fill="#000000" font-family="sans-serif" font-size="12" lengthAdjust="spacingAndGlyphs" textLength="44" x="1090.55" y="225.1543">Tenant</text><line style="stroke: #A80036; stroke-width: 1.5;" x1="1051" x2="1146" y1="237" y2="237"/><text fill="#000000" font-family="sans-serif" font-size="11" lengthAdjust="spacingAndGlyphs" textLength="85" x="1056" y="251.2104">paidRate : Real</text><line style="stroke: #A80036; stroke-width: 1.5;" x1="1051" x2="1146" y1="257.8047" y2="257.8047"/><!--class Discount--><rect fill="#FEFECE" filter="url(#f1bmvu6uu0xw2b)" height="73.6094" id="Discount" style="stroke: #A80036; stroke-width: 1.5;" width="128" x="1166.5" y="564"/><ellipse cx="1199.95" cy="580" fill="#ADD1B2" rx="11" ry="11" style="stroke: #A80036; stroke-width: 1.0;"/><path d="M1202.9188,585.6406 Q1202.3406,585.9375 1201.7,586.0859 Q1201.0594,586.2344 1200.3563,586.2344 Q1197.8563,586.2344 1196.5359,584.5859 Q1195.2156,582.9375 1195.2156,579.8125 Q1195.2156,576.6875 1196.5359,575.0313 Q1197.8563,573.375 1200.3563,573.375 Q1201.0594,573.375 1201.7078,573.5313 Q1202.3563,573.6875 1202.9188,573.9844 L1202.9188,576.7031 Q1202.2938,576.125 1201.7,575.8516 Q1201.1063,575.5781 1200.4813,575.5781 Q1199.1375,575.5781 1198.45,576.6484 Q1197.7625,577.7188 1197.7625,579.8125 Q1197.7625,581.9063 1198.45,582.9766 Q1199.1375,584.0469 1200.4813,584.0469 Q1201.1063,584.0469 1201.7,583.7734 Q1202.2938,583.5 1202.9188,582.9219 L1202.9188,585.6406 Z "/><text fill="#000000" font-family="sans-serif" font-size="12" lengthAdjust="spacingAndGlyphs" textLength="55" x="1218.05" y="584.1543">Discount</text><line style="stroke: #A80036; stroke-width: 1.5;" x1="1167.5" x2="1293.5" y1="596" y2="596"/><text fill="#000000" font-family="sans-serif" font-size="11" lengthAdjust="spacingAndGlyphs" textLength="116" x="1172.5" y="610.2104">percentage : Integer</text><text fill="#000000" font-family="sans-serif" font-size="11" lengthAdjust="spacingAndGlyphs" textLength="73" x="1172.5" y="623.0151">label : String</text><line style="stroke: #A80036; stroke-width: 1.5;" x1="1167.5" x2="1293.5" y1="629.6094" y2="629.6094"/><!--class Rent--><rect fill="#FEFECE" filter="url(#f1bmvu6uu0xw2b)" height="73.6094" id="Rent" style="stroke: #A80036; stroke-width: 1.5;" width="96" x="1182.5" y="407"/><ellipse cx="1213.25" cy="423" fill="#ADD1B2" rx="11" ry="11" style="stroke: #A80036; stroke-width: 1.0;"/><path d="M1216.2188,428.6406 Q1215.6406,428.9375 1215,429.0859 Q1214.3594,429.2344 1213.6563,429.2344 Q1211.1563,429.2344 1209.8359,427.5859 Q1208.5156,425.9375 1208.5156,422.8125 Q1208.5156,419.6875 1209.8359,418.0313 Q1211.1563,416.375 1213.6563,416.375 Q1214.3594,416.375 1215.0078,416.5313 Q1215.6563,416.6875 1216.2188,416.9844 L1216.2188,419.7031 Q1215.5938,419.125 1215,418.8516 Q1214.4063,418.5781 1213.7813,418.5781 Q1212.4375,418.5781 1211.75,419.6484 Q1211.0625,420.7188 1211.0625,422.8125 Q1211.0625,424.9063 1211.75,425.9766 Q1212.4375,427.0469 1213.7813,427.0469 Q1214.4063,427.0469 1215,426.7734 Q1215.5938,426.5 1216.2188,425.9219 L1216.2188,428.6406 Z "/><text fill="#000000" font-family="sans-serif" font-size="12" lengthAdjust="spacingAndGlyphs" textLength="29" x="1230.75" y="427.1543">Rent</text><line style="stroke: #A80036; stroke-width: 1.5;" x1="1183.5" x2="1277.5" y1="439" y2="439"/><text fill="#000000" font-family="sans-serif" font-size="11" lengthAdjust="spacingAndGlyphs" textLength="84" x="1188.5" y="453.2104">discount : Real</text><text fill="#000000" font-family="sans-serif" font-size="11" lengthAdjust="spacingAndGlyphs" textLength="59" x="1188.5" y="466.0151">rate : Real</text><line style="stroke: #A80036; stroke-width: 1.5;" x1="1183.5" x2="1277.5" y1="472.6094" y2="472.6094"/><ellipse cx="1012.5" cy="235.5" fill="#000000" rx="2" ry="2" style="stroke: none; stroke-width: 1.0;"/><!--link Bathroom to Room--><path d="M125.878,280.965 C142.665,297.982 163.264,316.52 184.5,330 C270.091,384.328 385.948,419.472 442.546,434.549 " fill="none" id="Bathroom-Room" style="stroke: #A80036; stroke-width: 1.0;"/><polygon fill="none" points="120.609,285.582,111.906,266.262,130.758,275.938,120.609,285.582" style="stroke: #A80036; stroke-width: 1.0;"/><!--link Bedroom to Room--><path d="M800.854,305.418 C790.565,314.38 779.629,322.896 768.5,330 C682.819,384.693 566.506,419.778 510.03,434.718 " fill="none" id="Bedroom-Room" style="stroke: #A80036; stroke-width: 1.0;"/><polygon fill="none" points="796.442,299.966,815.912,291.602,805.907,310.282,796.442,299.966" style="stroke: #A80036; stroke-width: 1.0;"/><!--link Resident to Person--><path d="M865.5,494.704 C865.5,515.004 865.5,538.237 865.5,557.7064 " fill="none" id="Resident-Person" style="stroke: #A80036; stroke-width: 1.0;"/><polygon fill="none" points="858.5,494.519,865.5,474.519,872.5,494.519,858.5,494.519" style="stroke: #A80036; stroke-width: 1.0;"/><!--link Tenant to Resident--><path d="M1070.26,283.417 C1059.55,299.191 1046.52,316.255 1032.5,330 C998.754,363.085 954.158,392.7 919.54,413.304 " fill="none" id="Tenant-Resident" style="stroke: #A80036; stroke-width: 1.0;"/><polygon fill="none" points="1064.55,279.367,1081.31,266.403,1076.29,286.99,1064.55,279.367" style="stroke: #A80036; stroke-width: 1.0;"/><!--link Residence to Room--><path d="M476.5,343.302 C476.5,372.087 476.5,400.503 476.5,419.588 " fill="none" id="Residence-Room" style="stroke: #A80036; stroke-width: 1.0;"/><polygon fill="#A80036" points="476.5,330.083,472.5,336.083,476.5,342.083,480.5,336.083,476.5,330.083" style="stroke: #A80036; stroke-width: 1.0;"/><text fill="#000000" font-family="sans-serif" font-size="13" lengthAdjust="spacingAndGlyphs" textLength="100" x="477.5" y="373.0669">ContainsRooms</text><text fill="#000000" font-family="sans-serif" font-size="13" lengthAdjust="spacingAndGlyphs" textLength="90" x="383.0547" y="349.9764">1..1 residence</text><text fill="#000000" font-family="sans-serif" font-size="13" lengthAdjust="spacingAndGlyphs" textLength="68" x="400.2125" y="408.8925">0..* rooms</text><!--link Bathroom to Bedroom--><path d="M108.995,204.812 C126.84,183.013 153.824,155.189 184.5,141 C286.25,93.935 323.531,121.562 435.5,116 C583.734,108.636 633.956,78.347 768.5,141 C787.682,149.932 805.365,164.264 820.233,179.095 " fill="none" id="Bathroom-Bedroom" style="stroke: #A80036; stroke-width: 1.0;"/><text fill="#000000" font-family="sans-serif" font-size="13" lengthAdjust="spacingAndGlyphs" textLength="80" x="436.5" y="107.0669">IsInBedroom</text><text fill="#000000" font-family="sans-serif" font-size="13" lengthAdjust="spacingAndGlyphs" textLength="98" x="5.5289" y="194.0365">0..3 bathrooms</text><text fill="#000000" font-family="sans-serif" font-size="13" lengthAdjust="spacingAndGlyphs" textLength="86" x="819.9567" y="168.3801">0..1 bedroom</text><!--link Resident to Resident--><path d="M927.539,437.066 C947.082,437.172 962.5,439.483 962.5,444 C962.5,448.517 947.082,450.828 927.539,450.934 " fill="none" id="Resident-Resident" style="stroke: #A80036; stroke-width: 1.0;"/><text fill="#000000" font-family="sans-serif" font-size="13" lengthAdjust="spacingAndGlyphs" textLength="75" x="968.5" y="448.5669">IsTutoredBy</text><text fill="#000000" font-family="sans-serif" font-size="13" lengthAdjust="spacingAndGlyphs" textLength="74" x="935.4312" y="432.9958">0..* tutored</text><text fill="#000000" font-family="sans-serif" font-size="13" lengthAdjust="spacingAndGlyphs" textLength="66" x="935.4094" y="464.2098">0..2 tutors</text><!--link Resident to Resident--><path d="M927.673,432.076 C983.328,427.307 1049.5,431.281 1049.5,444 C1049.5,456.719 983.328,460.693 927.673,455.924 " fill="none" id="Resident-Resident" style="stroke: #A80036; stroke-width: 1.0;"/><text fill="#000000" font-family="sans-serif" font-size="13" lengthAdjust="spacingAndGlyphs" textLength="85" x="1055.5" y="448.5669">IsMarriedWith</text><text fill="#000000" font-family="sans-serif" font-size="13" lengthAdjust="spacingAndGlyphs" textLength="80" x="935.4956" y="427.6683">0..1 resident</text><text fill="#000000" font-family="sans-serif" font-size="13" lengthAdjust="spacingAndGlyphs" textLength="76" x="935.6555" y="469.5518">0..1 consort</text><!--link Bedroom to Resident--><path d="M865.5,291.567 C865.5,330.636 865.5,381.57 865.5,413.277 " fill="none" id="Bedroom-Resident" style="stroke: #A80036; stroke-width: 1.0;"/><text fill="#000000" font-family="sans-serif" font-size="13" lengthAdjust="spacingAndGlyphs" textLength="85" x="866.5" y="373.0669">IsOccupiedBy</text><text fill="#000000" font-family="sans-serif" font-size="13" lengthAdjust="spacingAndGlyphs" textLength="122" x="873.3156" y="311.7854">1..1 occupiedRoom</text><text fill="#000000" font-family="sans-serif" font-size="13" lengthAdjust="spacingAndGlyphs" textLength="93" x="762.9094" y="402.4942">0..* occupants</text><!--link Rent to Discount--><path d="M1230.5,494.474 C1230.5,517.023 1230.5,543.231 1230.5,563.8871 " fill="none" id="Rent-Discount" style="stroke: #A80036; stroke-width: 1.0;"/><polygon fill="#A80036" points="1230.5,481.341,1226.5,487.341,1230.5,493.341,1234.5,487.341,1230.5,481.341" style="stroke: #A80036; stroke-width: 1.0;"/><text fill="#000000" font-family="sans-serif" font-size="13" lengthAdjust="spacingAndGlyphs" textLength="88" x="1231.5" y="524.0669">HasDiscounts</text><text fill="#000000" font-family="sans-serif" font-size="13" lengthAdjust="spacingAndGlyphs" textLength="54" x="1172.1969" y="500.5961">1..1 rent</text><text fill="#000000" font-family="sans-serif" font-size="13" lengthAdjust="spacingAndGlyphs" textLength="88" x="1134.6625" y="553.0539">0..* discounts</text><!--link Bedroom to apoint24--><path d="M945.023,235.5 C974.248,235.5 1002.194,235.5 1010.21,235.5 " fill="none" id="Bedroom-apoint24" style="stroke: #A80036; stroke-width: 1.0;"/><text fill="#000000" font-family="sans-serif" font-size="13" lengthAdjust="spacingAndGlyphs" textLength="29" x="963.25" y="228.5669">Rent</text><text fill="#000000" font-family="sans-serif" font-size="13" lengthAdjust="spacingAndGlyphs" textLength="135" x="891.7142" y="222.4999">1..* rentedBedrooms</text><!--link apoint24 to Tenant--><path d="M1014.52,235.5 C1026.33,235.5 1038.14,235.5 1049.95,235.5 " fill="none" id="apoint24-Tenant" style="stroke: #A80036; stroke-width: 1.0;"/><line style="stroke: #A80036; stroke-width: 1.0;" x1="1014.52" x2="979.947" y1="235.5" y2="250.5"/><text fill="#000000" font-family="sans-serif" font-size="13" lengthAdjust="spacingAndGlyphs" textLength="70" x="965.7771" y="257.6314">0..1 tenant</text><!--link apoint24 to Rent--><path d="M1012.42,237.544 C1011.89,245.598 1009.37,298.379 1032.5,330 C1035.03,333.454 1124.56,383.845 1182.35,416.157 " fill="none" id="apoint24-Rent" style="stroke: #A80036; stroke-width: 1.0; stroke-dasharray: 7.0,7.0;"/><!--
@startuml

enum Category {
    standard
    premium
    prestige
}

enum Gender {
    female
}

class Residence {
{field}  name : String
{field}  floorMin : Integer
{field}  floorMax : Integer
{field}  category : Category
{field}  maxNbOfFreeUnits : Integer
{field}  avgRate : Real
{method}    bedrooms():Set(Bedroom) ={method}    usefulBedrooms():Set(Bedroom) ={method}    bathrooms():Set(Bathroom) =}



class Room {
{field}  number : Integer
{field}  floor : Integer
{field}  isOutOfOrder : Boolean
}



class Bathroom {
{field}  isOnTheLanding : Boolean
}

Bathroom <|- - Room


class Bedroom {
{field}  nbOfSingleBeds : Integer
{field}  nbOfDoubleBeds : Integer
{field}  rate : Real
{field}  isNonSmoking : Boolean
{field}  nbOfUnits : Integer
}

Bedroom <|- - Room


class Person {
{field}  name : String
{field}  age : Integer
{field}  gender : Gender
}



class Resident {
{field}  isSmoker : Boolean
}

Resident <|- - Person


class Tenant {
{field}  paidRate : Real
}

Tenant <|- - Resident


class Discount {
{field}  percentage : Integer
{field}  label : String
}



Residence "1..1 residence" *- - "0..* rooms" Room : ContainsRooms

Bathroom "0..3 bathrooms" - "0..1 bedroom" Bedroom : IsInBedroom

Resident "0..* tutored" - "0..2 tutors" Resident : IsTutoredBy

Resident "0..1 resident" - "0..1 consort" Resident : IsMarriedWith

Bedroom "1..1 occupiedRoom" - "0..* occupants" Resident : IsOccupiedBy

Rent "1..1 rent" *- - "0..* discounts" Discount : HasDiscounts

Bedroom "1..* rentedBedrooms" - "0..1 tenant" Tenant : Rent

class Rent {
{field}  discount : Real
{field}  rate : Real
}



( Bedroom, Tenant) .. Rent

@enduml

PlantUML version 1.2017.15(Mon Jul 03 18:45:34 CEST 2017)
(GPL source distribution)
Java Runtime: Java(TM) SE Runtime Environment
JVM: Java HotSpot(TM) 64-Bit Server VM
Java Version: 1.8.0_101-b13
Operating System: Linux
OS Version: 4.4.0-71-generic
Default Encoding: UTF-8
Language: en
Country: US
--></g></svg>