<?xml version="1.0" encoding="UTF-8" standalone="no"?><svg xmlns="http://www.w3.org/2000/svg" xmlns:xlink="http://www.w3.org/1999/xlink" contentScriptType="application/ecmascript" contentStyleType="text/css" height="340px" preserveAspectRatio="none" style="width:852px;height:340px;" version="1.1" viewBox="0 0 852 340" width="852px" zoomAndPan="magnify"><defs><filter height="300%" id="f11g8ix9i84jmk" width="300%" x="-1" y="-1"><feGaussianBlur result="blurOut" stdDeviation="2.0"/><feColorMatrix in="blurOut" result="blurOut2" type="matrix" values="0 0 0 0 0 0 0 0 0 0 0 0 0 0 0 0 0 0 .4 0"/><feOffset dx="4.0" dy="4.0" in="blurOut2" result="blurOut3"/><feBlend in="SourceGraphic" in2="blurOut3" mode="normal"/></filter></defs><g><!--class Class01--><rect fill="#FEFECE" filter="url(#f11g8ix9i84jmk)" height="48" id="Class01" style="stroke: #A80036; stroke-width: 1.5;" width="81" x="43.5" y="8"/><ellipse cx="58.5" cy="24" fill="#ADD1B2" rx="11" ry="11" style="stroke: #A80036; stroke-width: 1.0;"/><path d="M61.4688,29.6406 Q60.8906,29.9375 60.25,30.0859 Q59.6094,30.2344 58.9063,30.2344 Q56.4063,30.2344 55.0859,28.5859 Q53.7656,26.9375 53.7656,23.8125 Q53.7656,20.6875 55.0859,19.0313 Q56.4063,17.375 58.9063,17.375 Q59.6094,17.375 60.2578,17.5313 Q60.9063,17.6875 61.4688,17.9844 L61.4688,20.7031 Q60.8438,20.125 60.25,19.8516 Q59.6563,19.5781 59.0313,19.5781 Q57.6875,19.5781 57,20.6484 Q56.3125,21.7188 56.3125,23.8125 Q56.3125,25.9063 57,26.9766 Q57.6875,28.0469 59.0313,28.0469 Q59.6563,28.0469 60.25,27.7734 Q60.8438,27.5 61.4688,26.9219 L61.4688,29.6406 Z "/><text fill="#000000" font-family="sans-serif" font-size="12" lengthAdjust="spacingAndGlyphs" textLength="49" x="72.5" y="28.1543">Class01</text><line style="stroke: #A80036; stroke-width: 1.5;" x1="44.5" x2="123.5" y1="40" y2="40"/><line style="stroke: #A80036; stroke-width: 1.5;" x1="44.5" x2="123.5" y1="48" y2="48"/><!--class Class02--><rect fill="#FEFECE" filter="url(#f11g8ix9i84jmk)" height="48" id="Class02" style="stroke: #A80036; stroke-width: 1.5;" width="81" x="43.5" y="281"/><ellipse cx="58.5" cy="297" fill="#ADD1B2" rx="11" ry="11" style="stroke: #A80036; stroke-width: 1.0;"/><path d="M61.4688,302.6406 Q60.8906,302.9375 60.25,303.0859 Q59.6094,303.2344 58.9063,303.2344 Q56.4063,303.2344 55.0859,301.5859 Q53.7656,299.9375 53.7656,296.8125 Q53.7656,293.6875 55.0859,292.0313 Q56.4063,290.375 58.9063,290.375 Q59.6094,290.375 60.2578,290.5313 Q60.9063,290.6875 61.4688,290.9844 L61.4688,293.7031 Q60.8438,293.125 60.25,292.8516 Q59.6563,292.5781 59.0313,292.5781 Q57.6875,292.5781 57,293.6484 Q56.3125,294.7188 56.3125,296.8125 Q56.3125,298.9063 57,299.9766 Q57.6875,301.0469 59.0313,301.0469 Q59.6563,301.0469 60.25,300.7734 Q60.8438,300.5 61.4688,299.9219 L61.4688,302.6406 Z "/><text fill="#000000" font-family="sans-serif" font-size="12" lengthAdjust="spacingAndGlyphs" textLength="49" x="72.5" y="301.1543">Class02</text><line style="stroke: #A80036; stroke-width: 1.5;" x1="44.5" x2="123.5" y1="313" y2="313"/><line style="stroke: #A80036; stroke-width: 1.5;" x1="44.5" x2="123.5" y1="321" y2="321"/><!--class Enrollment--><rect fill="#FEFECE" filter="url(#f11g8ix9i84jmk)" height="48" id="Enrollment" style="stroke: #A80036; stroke-width: 1.5;" width="99" x="121.5" y="172"/><ellipse cx="136.5" cy="188" fill="#ADD1B2" rx="11" ry="11" style="stroke: #A80036; stroke-width: 1.0;"/><path d="M139.4688,193.6406 Q138.8906,193.9375 138.25,194.0859 Q137.6094,194.2344 136.9063,194.2344 Q134.4063,194.2344 133.0859,192.5859 Q131.7656,190.9375 131.7656,187.8125 Q131.7656,184.6875 133.0859,183.0313 Q134.4063,181.375 136.9063,181.375 Q137.6094,181.375 138.2578,181.5313 Q138.9063,181.6875 139.4688,181.9844 L139.4688,184.7031 Q138.8438,184.125 138.25,183.8516 Q137.6563,183.5781 137.0313,183.5781 Q135.6875,183.5781 135,184.6484 Q134.3125,185.7188 134.3125,187.8125 Q134.3125,189.9063 135,190.9766 Q135.6875,192.0469 137.0313,192.0469 Q137.6563,192.0469 138.25,191.7734 Q138.8438,191.5 139.4688,190.9219 L139.4688,193.6406 Z "/><text fill="#000000" font-family="sans-serif" font-size="12" lengthAdjust="spacingAndGlyphs" textLength="67" x="150.5" y="192.1543">Enrollment</text><line style="stroke: #A80036; stroke-width: 1.5;" x1="122.5" x2="219.5" y1="204" y2="204"/><line style="stroke: #A80036; stroke-width: 1.5;" x1="122.5" x2="219.5" y1="212" y2="212"/><ellipse cx="84" cy="196" fill="#000000" rx="2" ry="2" style="stroke: none; stroke-width: 1.0;"/><!--class Class03--><rect fill="#FEFECE" filter="url(#f11g8ix9i84jmk)" height="48" id="Class03" style="stroke: #A80036; stroke-width: 1.5;" width="81" x="537.5" y="8"/><ellipse cx="552.5" cy="24" fill="#ADD1B2" rx="11" ry="11" style="stroke: #A80036; stroke-width: 1.0;"/><path d="M555.4688,29.6406 Q554.8906,29.9375 554.25,30.0859 Q553.6094,30.2344 552.9063,30.2344 Q550.4063,30.2344 549.0859,28.5859 Q547.7656,26.9375 547.7656,23.8125 Q547.7656,20.6875 549.0859,19.0313 Q550.4063,17.375 552.9063,17.375 Q553.6094,17.375 554.2578,17.5313 Q554.9063,17.6875 555.4688,17.9844 L555.4688,20.7031 Q554.8438,20.125 554.25,19.8516 Q553.6563,19.5781 553.0313,19.5781 Q551.6875,19.5781 551,20.6484 Q550.3125,21.7188 550.3125,23.8125 Q550.3125,25.9063 551,26.9766 Q551.6875,28.0469 553.0313,28.0469 Q553.6563,28.0469 554.25,27.7734 Q554.8438,27.5 555.4688,26.9219 L555.4688,29.6406 Z "/><text fill="#000000" font-family="sans-serif" font-size="12" lengthAdjust="spacingAndGlyphs" textLength="49" x="566.5" y="28.1543">Class03</text><line style="stroke: #A80036; stroke-width: 1.5;" x1="538.5" x2="617.5" y1="40" y2="40"/><line style="stroke: #A80036; stroke-width: 1.5;" x1="538.5" x2="617.5" y1="48" y2="48"/><!--class Class04--><rect fill="#FEFECE" filter="url(#f11g8ix9i84jmk)" height="48" id="Class04" style="stroke: #A80036; stroke-width: 1.5;" width="81" x="537.5" y="172"/><ellipse cx="552.5" cy="188" fill="#ADD1B2" rx="11" ry="11" style="stroke: #A80036; stroke-width: 1.0;"/><path d="M555.4688,193.6406 Q554.8906,193.9375 554.25,194.0859 Q553.6094,194.2344 552.9063,194.2344 Q550.4063,194.2344 549.0859,192.5859 Q547.7656,190.9375 547.7656,187.8125 Q547.7656,184.6875 549.0859,183.0313 Q550.4063,181.375 552.9063,181.375 Q553.6094,181.375 554.2578,181.5313 Q554.9063,181.6875 555.4688,181.9844 L555.4688,184.7031 Q554.8438,184.125 554.25,183.8516 Q553.6563,183.5781 553.0313,183.5781 Q551.6875,183.5781 551,184.6484 Q550.3125,185.7188 550.3125,187.8125 Q550.3125,189.9063 551,190.9766 Q551.6875,192.0469 553.0313,192.0469 Q553.6563,192.0469 554.25,191.7734 Q554.8438,191.5 555.4688,190.9219 L555.4688,193.6406 Z "/><text fill="#000000" font-family="sans-serif" font-size="12" lengthAdjust="spacingAndGlyphs" textLength="49" x="566.5" y="192.1543">Class04</text><line style="stroke: #A80036; stroke-width: 1.5;" x1="538.5" x2="617.5" y1="204" y2="204"/><line style="stroke: #A80036; stroke-width: 1.5;" x1="538.5" x2="617.5" y1="212" y2="212"/><!--class Class05--><rect fill="#FEFECE" filter="url(#f11g8ix9i84jmk)" height="48" id="Class05" style="stroke: #A80036; stroke-width: 1.5;" width="81" x="726.5" y="8"/><ellipse cx="741.5" cy="24" fill="#ADD1B2" rx="11" ry="11" style="stroke: #A80036; stroke-width: 1.0;"/><path d="M744.4688,29.6406 Q743.8906,29.9375 743.25,30.0859 Q742.6094,30.2344 741.9063,30.2344 Q739.4063,30.2344 738.0859,28.5859 Q736.7656,26.9375 736.7656,23.8125 Q736.7656,20.6875 738.0859,19.0313 Q739.4063,17.375 741.9063,17.375 Q742.6094,17.375 743.2578,17.5313 Q743.9063,17.6875 744.4688,17.9844 L744.4688,20.7031 Q743.8438,20.125 743.25,19.8516 Q742.6563,19.5781 742.0313,19.5781 Q740.6875,19.5781 740,20.6484 Q739.3125,21.7188 739.3125,23.8125 Q739.3125,25.9063 740,26.9766 Q740.6875,28.0469 742.0313,28.0469 Q742.6563,28.0469 743.25,27.7734 Q743.8438,27.5 744.4688,26.9219 L744.4688,29.6406 Z "/><text fill="#000000" font-family="sans-serif" font-size="12" lengthAdjust="spacingAndGlyphs" textLength="49" x="755.5" y="28.1543">Class05</text><line style="stroke: #A80036; stroke-width: 1.5;" x1="727.5" x2="806.5" y1="40" y2="40"/><line style="stroke: #A80036; stroke-width: 1.5;" x1="727.5" x2="806.5" y1="48" y2="48"/><!--class Class06--><rect fill="#FEFECE" filter="url(#f11g8ix9i84jmk)" height="48" id="Class06" style="stroke: #A80036; stroke-width: 1.5;" width="81" x="726.5" y="172"/><ellipse cx="741.5" cy="188" fill="#ADD1B2" rx="11" ry="11" style="stroke: #A80036; stroke-width: 1.0;"/><path d="M744.4688,193.6406 Q743.8906,193.9375 743.25,194.0859 Q742.6094,194.2344 741.9063,194.2344 Q739.4063,194.2344 738.0859,192.5859 Q736.7656,190.9375 736.7656,187.8125 Q736.7656,184.6875 738.0859,183.0313 Q739.4063,181.375 741.9063,181.375 Q742.6094,181.375 743.2578,181.5313 Q743.9063,181.6875 744.4688,181.9844 L744.4688,184.7031 Q743.8438,184.125 743.25,183.8516 Q742.6563,183.5781 742.0313,183.5781 Q740.6875,183.5781 740,184.6484 Q739.3125,185.7188 739.3125,187.8125 Q739.3125,189.9063 740,190.9766 Q740.6875,192.0469 742.0313,192.0469 Q742.6563,192.0469 743.25,191.7734 Q743.8438,191.5 744.4688,190.9219 L744.4688,193.6406 Z "/><text fill="#000000" font-family="sans-serif" font-size="12" lengthAdjust="spacingAndGlyphs" textLength="49" x="755.5" y="192.1543">Class06</text><line style="stroke: #A80036; stroke-width: 1.5;" x1="727.5" x2="806.5" y1="204" y2="204"/><line style="stroke: #A80036; stroke-width: 1.5;" x1="727.5" x2="806.5" y1="212" y2="212"/><!--class Object--><rect fill="#FEFECE" filter="url(#f11g8ix9i84jmk)" height="48" id="Object" style="stroke: #A80036; stroke-width: 1.5;" width="72" x="160" y="8"/><ellipse cx="175" cy="24" fill="#ADD1B2" rx="11" ry="11" style="stroke: #A80036; stroke-width: 1.0;"/><path d="M177.9688,29.6406 Q177.3906,29.9375 176.75,30.0859 Q176.1094,30.2344 175.4063,30.2344 Q172.9063,30.2344 171.5859,28.5859 Q170.2656,26.9375 170.2656,23.8125 Q170.2656,20.6875 171.5859,19.0313 Q172.9063,17.375 175.4063,17.375 Q176.1094,17.375 176.7578,17.5313 Q177.4063,17.6875 177.9688,17.9844 L177.9688,20.7031 Q177.3438,20.125 176.75,19.8516 Q176.1563,19.5781 175.5313,19.5781 Q174.1875,19.5781 173.5,20.6484 Q172.8125,21.7188 172.8125,23.8125 Q172.8125,25.9063 173.5,26.9766 Q174.1875,28.0469 175.5313,28.0469 Q176.1563,28.0469 176.75,27.7734 Q177.3438,27.5 177.9688,26.9219 L177.9688,29.6406 Z "/><text fill="#000000" font-family="sans-serif" font-size="12" lengthAdjust="spacingAndGlyphs" textLength="40" x="189" y="28.1543">Object</text><line style="stroke: #A80036; stroke-width: 1.5;" x1="161" x2="231" y1="40" y2="40"/><line style="stroke: #A80036; stroke-width: 1.5;" x1="161" x2="231" y1="48" y2="48"/><!--class ArrayList--><rect fill="#FEFECE" filter="url(#f11g8ix9i84jmk)" height="48" id="ArrayList" style="stroke: #A80036; stroke-width: 1.5;" width="85" x="267.5" y="8"/><ellipse cx="282.5" cy="24" fill="#ADD1B2" rx="11" ry="11" style="stroke: #A80036; stroke-width: 1.0;"/><path d="M285.4688,29.6406 Q284.8906,29.9375 284.25,30.0859 Q283.6094,30.2344 282.9063,30.2344 Q280.4063,30.2344 279.0859,28.5859 Q277.7656,26.9375 277.7656,23.8125 Q277.7656,20.6875 279.0859,19.0313 Q280.4063,17.375 282.9063,17.375 Q283.6094,17.375 284.2578,17.5313 Q284.9063,17.6875 285.4688,17.9844 L285.4688,20.7031 Q284.8438,20.125 284.25,19.8516 Q283.6563,19.5781 283.0313,19.5781 Q281.6875,19.5781 281,20.6484 Q280.3125,21.7188 280.3125,23.8125 Q280.3125,25.9063 281,26.9766 Q281.6875,28.0469 283.0313,28.0469 Q283.6563,28.0469 284.25,27.7734 Q284.8438,27.5 285.4688,26.9219 L285.4688,29.6406 Z "/><text fill="#000000" font-family="sans-serif" font-size="12" lengthAdjust="spacingAndGlyphs" textLength="53" x="296.5" y="28.1543">ArrayList</text><line style="stroke: #A80036; stroke-width: 1.5;" x1="268.5" x2="351.5" y1="40" y2="40"/><line style="stroke: #A80036; stroke-width: 1.5;" x1="268.5" x2="351.5" y1="48" y2="48"/><!--class A--><rect fill="#FEFECE" filter="url(#f11g8ix9i84jmk)" height="48" id="A" style="stroke: #A80036; stroke-width: 1.5;" width="40" x="312" y="172"/><ellipse cx="327" cy="188" fill="#ADD1B2" rx="11" ry="11" style="stroke: #A80036; stroke-width: 1.0;"/><path d="M329.9688,193.6406 Q329.3906,193.9375 328.75,194.0859 Q328.1094,194.2344 327.4063,194.2344 Q324.9063,194.2344 323.5859,192.5859 Q322.2656,190.9375 322.2656,187.8125 Q322.2656,184.6875 323.5859,183.0313 Q324.9063,181.375 327.4063,181.375 Q328.1094,181.375 328.7578,181.5313 Q329.4063,181.6875 329.9688,181.9844 L329.9688,184.7031 Q329.3438,184.125 328.75,183.8516 Q328.1563,183.5781 327.5313,183.5781 Q326.1875,183.5781 325.5,184.6484 Q324.8125,185.7188 324.8125,187.8125 Q324.8125,189.9063 325.5,190.9766 Q326.1875,192.0469 327.5313,192.0469 Q328.1563,192.0469 328.75,191.7734 Q329.3438,191.5 329.9688,190.9219 L329.9688,193.6406 Z "/><text fill="#000000" font-family="sans-serif" font-size="12" lengthAdjust="spacingAndGlyphs" textLength="8" x="341" y="192.1543">A</text><line style="stroke: #A80036; stroke-width: 1.5;" x1="313" x2="351" y1="204" y2="204"/><line style="stroke: #A80036; stroke-width: 1.5;" x1="313" x2="351" y1="212" y2="212"/><!--class B--><rect fill="#FEFECE" filter="url(#f11g8ix9i84jmk)" height="48" id="B" style="stroke: #A80036; stroke-width: 1.5;" width="40" x="387" y="172"/><ellipse cx="402" cy="188" fill="#ADD1B2" rx="11" ry="11" style="stroke: #A80036; stroke-width: 1.0;"/><path d="M404.9688,193.6406 Q404.3906,193.9375 403.75,194.0859 Q403.1094,194.2344 402.4063,194.2344 Q399.9063,194.2344 398.5859,192.5859 Q397.2656,190.9375 397.2656,187.8125 Q397.2656,184.6875 398.5859,183.0313 Q399.9063,181.375 402.4063,181.375 Q403.1094,181.375 403.7578,181.5313 Q404.4063,181.6875 404.9688,181.9844 L404.9688,184.7031 Q404.3438,184.125 403.75,183.8516 Q403.1563,183.5781 402.5313,183.5781 Q401.1875,183.5781 400.5,184.6484 Q399.8125,185.7188 399.8125,187.8125 Q399.8125,189.9063 400.5,190.9766 Q401.1875,192.0469 402.5313,192.0469 Q403.1563,192.0469 403.75,191.7734 Q404.3438,191.5 404.9688,190.9219 L404.9688,193.6406 Z "/><text fill="#000000" font-family="sans-serif" font-size="12" lengthAdjust="spacingAndGlyphs" textLength="8" x="416" y="192.1543">B</text><line style="stroke: #A80036; stroke-width: 1.5;" x1="388" x2="426" y1="204" y2="204"/><line style="stroke: #A80036; stroke-width: 1.5;" x1="388" x2="426" y1="212" y2="212"/><!--class C--><rect fill="#FEFECE" filter="url(#f11g8ix9i84jmk)" height="48" id="C" style="stroke: #A80036; stroke-width: 1.5;" width="40" x="462" y="172"/><ellipse cx="477" cy="188" fill="#ADD1B2" rx="11" ry="11" style="stroke: #A80036; stroke-width: 1.0;"/><path d="M479.9688,193.6406 Q479.3906,193.9375 478.75,194.0859 Q478.1094,194.2344 477.4063,194.2344 Q474.9063,194.2344 473.5859,192.5859 Q472.2656,190.9375 472.2656,187.8125 Q472.2656,184.6875 473.5859,183.0313 Q474.9063,181.375 477.4063,181.375 Q478.1094,181.375 478.7578,181.5313 Q479.4063,181.6875 479.9688,181.9844 L479.9688,184.7031 Q479.3438,184.125 478.75,183.8516 Q478.1563,183.5781 477.5313,183.5781 Q476.1875,183.5781 475.5,184.6484 Q474.8125,185.7188 474.8125,187.8125 Q474.8125,189.9063 475.5,190.9766 Q476.1875,192.0469 477.5313,192.0469 Q478.1563,192.0469 478.75,191.7734 Q479.3438,191.5 479.9688,190.9219 L479.9688,193.6406 Z "/><text fill="#000000" font-family="sans-serif" font-size="12" lengthAdjust="spacingAndGlyphs" textLength="8" x="491" y="192.1543">C</text><line style="stroke: #A80036; stroke-width: 1.5;" x1="463" x2="501" y1="204" y2="204"/><line style="stroke: #A80036; stroke-width: 1.5;" x1="463" x2="501" y1="212" y2="212"/><!--class D--><rect fill="#FEFECE" filter="url(#f11g8ix9i84jmk)" height="48" id="D" style="stroke: #A80036; stroke-width: 1.5;" width="41" x="348.5" y="281"/><ellipse cx="363.5" cy="297" fill="#ADD1B2" rx="11" ry="11" style="stroke: #A80036; stroke-width: 1.0;"/><path d="M366.4688,302.6406 Q365.8906,302.9375 365.25,303.0859 Q364.6094,303.2344 363.9063,303.2344 Q361.4063,303.2344 360.0859,301.5859 Q358.7656,299.9375 358.7656,296.8125 Q358.7656,293.6875 360.0859,292.0313 Q361.4063,290.375 363.9063,290.375 Q364.6094,290.375 365.2578,290.5313 Q365.9063,290.6875 366.4688,290.9844 L366.4688,293.7031 Q365.8438,293.125 365.25,292.8516 Q364.6563,292.5781 364.0313,292.5781 Q362.6875,292.5781 362,293.6484 Q361.3125,294.7188 361.3125,296.8125 Q361.3125,298.9063 362,299.9766 Q362.6875,301.0469 364.0313,301.0469 Q364.6563,301.0469 365.25,300.7734 Q365.8438,300.5 366.4688,299.9219 L366.4688,302.6406 Z "/><text fill="#000000" font-family="sans-serif" font-size="12" lengthAdjust="spacingAndGlyphs" textLength="9" x="377.5" y="301.1543">D</text><line style="stroke: #A80036; stroke-width: 1.5;" x1="349.5" x2="388.5" y1="313" y2="313"/><line style="stroke: #A80036; stroke-width: 1.5;" x1="349.5" x2="388.5" y1="321" y2="321"/><!--class E--><rect fill="#FEFECE" filter="url(#f11g8ix9i84jmk)" height="48" id="E" style="stroke: #A80036; stroke-width: 1.5;" width="40" x="425" y="281"/><ellipse cx="440" cy="297" fill="#ADD1B2" rx="11" ry="11" style="stroke: #A80036; stroke-width: 1.0;"/><path d="M442.9688,302.6406 Q442.3906,302.9375 441.75,303.0859 Q441.1094,303.2344 440.4063,303.2344 Q437.9063,303.2344 436.5859,301.5859 Q435.2656,299.9375 435.2656,296.8125 Q435.2656,293.6875 436.5859,292.0313 Q437.9063,290.375 440.4063,290.375 Q441.1094,290.375 441.7578,290.5313 Q442.4063,290.6875 442.9688,290.9844 L442.9688,293.7031 Q442.3438,293.125 441.75,292.8516 Q441.1563,292.5781 440.5313,292.5781 Q439.1875,292.5781 438.5,293.6484 Q437.8125,294.7188 437.8125,296.8125 Q437.8125,298.9063 438.5,299.9766 Q439.1875,301.0469 440.5313,301.0469 Q441.1563,301.0469 441.75,300.7734 Q442.3438,300.5 442.9688,299.9219 L442.9688,302.6406 Z "/><text fill="#000000" font-family="sans-serif" font-size="12" lengthAdjust="spacingAndGlyphs" textLength="8" x="454" y="301.1543">E</text><line style="stroke: #A80036; stroke-width: 1.5;" x1="426" x2="464" y1="313" y2="313"/><line style="stroke: #A80036; stroke-width: 1.5;" x1="426" x2="464" y1="321" y2="321"/><!--class F--><rect fill="#FEFECE" filter="url(#f11g8ix9i84jmk)" height="48" id="F" style="stroke: #A80036; stroke-width: 1.5;" width="39" x="387.5" y="8"/><ellipse cx="402.5" cy="24" fill="#ADD1B2" rx="11" ry="11" style="stroke: #A80036; stroke-width: 1.0;"/><path d="M405.4688,29.6406 Q404.8906,29.9375 404.25,30.0859 Q403.6094,30.2344 402.9063,30.2344 Q400.4063,30.2344 399.0859,28.5859 Q397.7656,26.9375 397.7656,23.8125 Q397.7656,20.6875 399.0859,19.0313 Q400.4063,17.375 402.9063,17.375 Q403.6094,17.375 404.2578,17.5313 Q404.9063,17.6875 405.4688,17.9844 L405.4688,20.7031 Q404.8438,20.125 404.25,19.8516 Q403.6563,19.5781 403.0313,19.5781 Q401.6875,19.5781 401,20.6484 Q400.3125,21.7188 400.3125,23.8125 Q400.3125,25.9063 401,26.9766 Q401.6875,28.0469 403.0313,28.0469 Q403.6563,28.0469 404.25,27.7734 Q404.8438,27.5 405.4688,26.9219 L405.4688,29.6406 Z "/><text fill="#000000" font-family="sans-serif" font-size="12" lengthAdjust="spacingAndGlyphs" textLength="7" x="416.5" y="28.1543">F</text><line style="stroke: #A80036; stroke-width: 1.5;" x1="388.5" x2="425.5" y1="40" y2="40"/><line style="stroke: #A80036; stroke-width: 1.5;" x1="388.5" x2="425.5" y1="48" y2="48"/><!--link Class01 to apoint123--><path d="M84,69.353 C84,113.836 84,184.447 84,193.933 " fill="none" id="Class01-apoint123" style="stroke: #A80036; stroke-width: 1.0;"/><polygon fill="#A80036" points="84,56.211,80,62.211,84,68.211,88,62.211,84,56.211" style="stroke: #A80036; stroke-width: 1.0;"/><text fill="#000000" font-family="sans-serif" font-size="13" lengthAdjust="spacingAndGlyphs" textLength="54" x="85" y="118.5669">contains</text><polygon fill="#000000" points="107.5,127.6328,110.5,133.6328,113.5,127.6328,107.5,127.6328" style="stroke: #000000; stroke-width: 1.0;"/><text fill="#000000" font-family="sans-serif" font-size="13" lengthAdjust="spacingAndGlyphs" textLength="36" x="43.6125" y="76.0236">1 one</text><!--link apoint123 to Class02--><path d="M84,198.202 C84,206.192 84,252.1964 84,280.8485 " fill="none" id="apoint123-Class02" style="stroke: #A80036; stroke-width: 1.0;"/><text fill="#000000" font-family="sans-serif" font-size="13" lengthAdjust="spacingAndGlyphs" textLength="63" x="12.9281" y="269.8217">0..* many</text><!--link apoint123 to Enrollment--><path d="M86.0391,196 C97.7654,196 109.4918,196 121.218,196 " fill="none" id="apoint123-Enrollment" style="stroke: #A80036; stroke-width: 1.0; stroke-dasharray: 7.0,7.0;"/><!--link Class03 to Class04--><path d="M575.663,69.491 C575.387,75.02 575.151,80.66 575,86 C574.296,110.879 574.296,117.121 575,142 C575.276,151.765 575.838,162.53 576.402,171.793 " fill="none" id="Class03-Class04" style="stroke: #A80036; stroke-width: 1.0;"/><polygon fill="#FFFFFF" points="576.402,56.207,572.0746,61.9753,575.7348,68.1884,580.0622,62.4201,576.402,56.207" style="stroke: #A80036; stroke-width: 1.0;"/><text fill="#000000" font-family="sans-serif" font-size="13" lengthAdjust="spacingAndGlyphs" textLength="62" x="618.5" y="99.0669">promotes</text><polygon fill="#FF0000" filter="url(#f11g8ix9i84jmk)" points="580,108.1328,580,133.1328,715,133.1328,715,118.1328,705,108.1328,580,108.1328" style="stroke: #A80036; stroke-width: 1.0;"/><line style="stroke: #A80036; stroke-width: 1.0;" x1="705" x2="705" y1="108.1328" y2="118.1328"/><line style="stroke: #A80036; stroke-width: 1.0;" x1="715" x2="705" y1="118.1328" y2="118.1328"/><text fill="#000000" font-family="sans-serif" font-size="13" lengthAdjust="spacingAndGlyphs" textLength="114" x="586" y="125.1997">this is the relation</text><!--link Class05 to Class06--><path d="M767,56.211 C767,85.323 767,135.216 767,166.582 " fill="none" id="Class05-Class06" style="stroke: #A80036; stroke-width: 1.0;"/><polygon fill="#A80036" points="767,171.832,771,162.832,767,166.832,763,162.832,767,171.832" style="stroke: #A80036; stroke-width: 1.0;"/><text fill="#000000" font-family="sans-serif" font-size="13" lengthAdjust="spacingAndGlyphs" textLength="57" x="774.5" y="99.0669">demotes</text><polygon fill="#FBFB77" filter="url(#f11g8ix9i84jmk)" points="772,108.1328,772,133.1328,830,133.1328,830,118.1328,820,108.1328,772,108.1328" style="stroke: #A80036; stroke-width: 1.0;"/><line style="stroke: #A80036; stroke-width: 1.0;" x1="820" x2="820" y1="108.1328" y2="118.1328"/><line style="stroke: #A80036; stroke-width: 1.0;" x1="830" x2="820" y1="118.1328" y2="118.1328"/><text fill="#000000" font-family="sans-serif" font-size="13" lengthAdjust="spacingAndGlyphs" textLength="37" x="778" y="125.1997">CRUD</text><text fill="#000000" font-family="sans-serif" font-size="13" lengthAdjust="spacingAndGlyphs" textLength="8" x="757.975" y="160.801">1</text><!--link Object to ArrayList--><path d="M251.933,49.994 C257.083,50.055 262.233,49.675 267.382,48.854 " fill="none" id="Object-ArrayList" style="stroke: #A80036; stroke-width: 1.0;"/><polygon fill="none" points="251.077,56.941,232.07,47.573,252.77,43.044,251.077,56.941" style="stroke: #A80036; stroke-width: 1.0;"/><!--link Object to ArrayList--><path d="M232.07,32 C237.128,32 242.186,32 247.243,32 " fill="none" id="Object-ArrayList" style="stroke: #A80036; stroke-width: 1.0;"/><polygon fill="none" points="247.382,25,267.382,32,247.382,39,247.382,25" style="stroke: #A80036; stroke-width: 1.0;"/><!--link Object to ArrayList--><path d="M232.07,16.427 C237.128,15.254 242.186,14.506 247.243,14.184 " fill="none" id="Object-ArrayList" style="stroke: #A80036; stroke-width: 1.0;"/><polygon fill="none" points="247.739,7.199,267.382,15.146,247.071,21.183,247.739,7.199" style="stroke: #A80036; stroke-width: 1.0;"/><!--link A to B--><path d="M372.258,196 C377.133,196 382.008,196 386.884,196 " fill="none" id="A-B" style="stroke: #A80036; stroke-width: 1.0;"/><polygon fill="none" points="372.215,203,352.215,196,372.215,189,372.215,203" style="stroke: #A80036; stroke-width: 1.0;"/><!--link B to C--><path d="M427.215,196 C432.09,196 436.965,196 441.841,196 " fill="none" id="B-C" style="stroke: #A80036; stroke-width: 1.0;"/><polygon fill="none" points="441.884,189,461.884,196,441.884,203,441.884,189" style="stroke: #A80036; stroke-width: 1.0;"/><!--link B to D--><path d="M392.047,239.1046 C387.002,253.3088 381.559,268.637 377.229,280.8279 " fill="none" id="B-D" style="stroke: #A80036; stroke-width: 1.0;"/><polygon fill="none" points="385.465,236.7215,398.755,220.217,398.658,241.4068,385.465,236.7215" style="stroke: #A80036; stroke-width: 1.0;"/><!--link B to E--><path d="M415.245,220.217 C419.578,232.4161 425.022,247.7467 430.066,261.9482 " fill="none" id="B-E" style="stroke: #A80036; stroke-width: 1.0;"/><polygon fill="none" points="436.674,259.6385,436.771,280.8279,423.481,264.3238,436.674,259.6385" style="stroke: #A80036; stroke-width: 1.0;"/><!--link F to B--><path d="M407,76.57 C407,107.233 407,147.069 407,171.832 " fill="none" id="F-B" style="stroke: #A80036; stroke-width: 1.0;"/><polygon fill="none" points="400,76.211,407,56.211,414,76.211,400,76.211" style="stroke: #A80036; stroke-width: 1.0;"/><!--
@startuml

Class01 "1 one" *- - "0..* many" Class02 : contains >

(Class01,Class02) . Enrollment

Class03 o- - Class04 : promotes
    note on link #red: this is the relation

Class05 - -> "1" Class06 : demotes
    note on link : CRUD

Object <|- - ArrayList

Object - -|> ArrayList

Object -|> ArrayList

A <|- B
B -|> C
B <|- - D
B - -|> E
F <|- - B

@enduml

PlantUML version 1.2017.15(Mon Jul 03 18:45:34 CEST 2017)
(GPL source distribution)
Java Runtime: Java(TM) SE Runtime Environment
JVM: Java HotSpot(TM) 64-Bit Server VM
Java Version: 1.8.0_101-b13
Operating System: Linux
OS Version: 4.4.0-71-generic
Default Encoding: UTF-8
Language: en
Country: US
--></g></svg>