<?xml version="1.0" encoding="UTF-8" standalone="no"?><svg xmlns="http://www.w3.org/2000/svg" xmlns:xlink="http://www.w3.org/1999/xlink" contentScriptType="application/ecmascript" contentStyleType="text/css" height="249px" preserveAspectRatio="none" style="width:149px;height:249px;" version="1.1" viewBox="0 0 149 249" width="149px" zoomAndPan="magnify"><defs><filter height="300%" id="f1ioe0kyg00yjw" width="300%" x="-1" y="-1"><feGaussianBlur result="blurOut" stdDeviation="2.0"/><feColorMatrix in="blurOut" result="blurOut2" type="matrix" values="0 0 0 0 0 0 0 0 0 0 0 0 0 0 0 0 0 0 .4 0"/><feOffset dx="4.0" dy="4.0" in="blurOut2" result="blurOut3"/><feBlend in="SourceGraphic" in2="blurOut3" mode="normal"/></filter></defs><g><!--class Object--><a target="_top" xlink:actuate="onRequest" xlink:href="http://meylan.unblog.fr" xlink:show="new" xlink:title="optional tip&#10;toto&lt;br/&gt;titi&lt;b&gt;kfkf&lt;/b&gt;" xlink:type="simple"><rect fill="#FEFECE" filter="url(#f1ioe0kyg00yjw)" height="121.9609" id="Object" style="stroke: #A80036; stroke-width: 1.5;" width="132" x="6" y="8"/><ellipse cx="38.1" cy="26.9688" fill="#A9DCDF" rx="11" ry="11" style="stroke: #A80036; stroke-width: 1.0;"/><path d="M38.2094,22.3125 L37.0531,27.3906 L39.3813,27.3906 L38.2094,22.3125 Z M36.725,20.0781 L39.7094,20.0781 L43.0688,32.4688 L40.6156,32.4688 L39.85,29.4063 L36.5688,29.4063 L35.8188,32.4688 L33.3813,32.4688 L36.725,20.0781 Z "/><text fill="#000000" font-family="sans-serif" font-size="12" font-style="italic" lengthAdjust="spacingAndGlyphs" textLength="66" x="53.9" y="24.1387">«abstract»</text><text fill="#000000" font-family="sans-serif" font-size="12" font-style="italic" lengthAdjust="spacingAndGlyphs" textLength="39" x="67.4" y="38.1074">Object</text><line style="stroke: #A80036; stroke-width: 1.5;" x1="7" x2="137" y1="45.9375" y2="45.9375"/></a><a target="_top" xlink:actuate="onRequest" xlink:href="http://meylan.fr" xlink:show="new" xlink:title="another tip &lt;b&gt;sdjs&lt;/b&gt;" xlink:type="simple"><text fill="#000000" font-family="sans-serif" font-size="11" lengthAdjust="spacingAndGlyphs" textLength="120" x="12" y="60.1479">Object[] elementData</text></a><line style="stroke: #A80036; stroke-width: 1.5;" x1="7" x2="137" y1="66.7422" y2="66.7422"/><text fill="#000000" font-family="sans-serif" font-size="11" lengthAdjust="spacingAndGlyphs" textLength="95" x="12" y="80.9526">size() «abstract»</text><text fill="#000000" font-family="sans-serif" font-size="11" lengthAdjust="spacingAndGlyphs" textLength="23" x="12" y="110.562">inv1</text><text fill="#000000" font-family="sans-serif" font-size="11" lengthAdjust="spacingAndGlyphs" textLength="23" x="12" y="123.3667">inv2</text><line style="stroke: #A80036; stroke-width: 1.5;" x1="7" x2="47.5" y1="93.9492" y2="93.9492"/><text fill="#000000" font-family="sans-serif" font-size="11" lengthAdjust="spacingAndGlyphs" textLength="49" x="47.5" y="97.2573">invariant</text><line style="stroke: #A80036; stroke-width: 1.5;" x1="96.5" x2="137" y1="93.9492" y2="93.9492"/><!--class ArrayList--><rect fill="#FEFECE" filter="url(#f1ioe0kyg00yjw)" height="48" id="ArrayList" style="stroke: #A80036; stroke-width: 1.5;" width="85" x="29.5" y="190"/><ellipse cx="44.5" cy="206" fill="#ADD1B2" rx="11" ry="11" style="stroke: #A80036; stroke-width: 1.0;"/><path d="M47.4688,211.6406 Q46.8906,211.9375 46.25,212.0859 Q45.6094,212.2344 44.9063,212.2344 Q42.4063,212.2344 41.0859,210.5859 Q39.7656,208.9375 39.7656,205.8125 Q39.7656,202.6875 41.0859,201.0313 Q42.4063,199.375 44.9063,199.375 Q45.6094,199.375 46.2578,199.5313 Q46.9063,199.6875 47.4688,199.9844 L47.4688,202.7031 Q46.8438,202.125 46.25,201.8516 Q45.6563,201.5781 45.0313,201.5781 Q43.6875,201.5781 43,202.6484 Q42.3125,203.7188 42.3125,205.8125 Q42.3125,207.9063 43,208.9766 Q43.6875,210.0469 45.0313,210.0469 Q45.6563,210.0469 46.25,209.7734 Q46.8438,209.5 47.4688,208.9219 L47.4688,211.6406 Z "/><text fill="#000000" font-family="sans-serif" font-size="12" lengthAdjust="spacingAndGlyphs" textLength="53" x="58.5" y="210.1543">ArrayList</text><line style="stroke: #A80036; stroke-width: 1.5;" x1="30.5" x2="113.5" y1="222" y2="222"/><line style="stroke: #A80036; stroke-width: 1.5;" x1="30.5" x2="113.5" y1="230" y2="230"/><!--link Object to ArrayList--><path d="M72,150.638 C72,165.0125 72,178.886 72,189.883 " fill="none" id="Object-ArrayList" style="stroke: #A80036; stroke-width: 1.0;"/><polygon fill="none" points="65.0001,150.2305,72,130.23,79.0001,150.2304,65.0001,150.2305" style="stroke: #A80036; stroke-width: 1.0;"/><!--
@startuml
Object <|- - ArrayList

class Object [[http://meylan.unblog.fr{optional tip\ntoto<br/>titi<b>kfkf</b>}]]

abstract class Object <<abstract>> {
    Object[] elementData [[[http://meylan.fr{another tip <b>sdjs</b>}]]]
    __
    {method} size() <<abstract>>
    __invariant__
    inv1
    inv2
}


@enduml

PlantUML version 1.2017.15(Mon Jul 03 18:45:34 CEST 2017)
(GPL source distribution)
Java Runtime: Java(TM) SE Runtime Environment
JVM: Java HotSpot(TM) 64-Bit Server VM
Java Version: 1.8.0_101-b13
Operating System: Linux
OS Version: 4.4.0-71-generic
Default Encoding: UTF-8
Language: en
Country: US
--></g></svg>