<?xml version="1.0" encoding="UTF-8" standalone="no"?><svg xmlns="http://www.w3.org/2000/svg" xmlns:xlink="http://www.w3.org/1999/xlink" contentScriptType="application/ecmascript" contentStyleType="text/css" height="199px" preserveAspectRatio="none" style="width:1593px;height:199px;" version="1.1" viewBox="0 0 1593 199" width="1593px" zoomAndPan="magnify"><defs><filter height="300%" id="f1xs8vr9x177tr" width="300%" x="-1" y="-1"><feGaussianBlur result="blurOut" stdDeviation="2.0"/><feColorMatrix in="blurOut" result="blurOut2" type="matrix" values="0 0 0 0 0 0 0 0 0 0 0 0 0 0 0 0 0 0 .4 0"/><feOffset dx="4.0" dy="4.0" in="blurOut2" result="blurOut3"/><feBlend in="SourceGraphic" in2="blurOut3" mode="normal"/></filter></defs><g><!--class Foo--><rect fill="#FEFECE" filter="url(#f1xs8vr9x177tr)" height="48" id="Foo" style="stroke: #A80036; stroke-width: 1.5;" width="55" x="194" y="20"/><ellipse cx="209" cy="36" fill="#ADD1B2" rx="11" ry="11" style="stroke: #A80036; stroke-width: 1.0;"/><path d="M211.9688,41.6406 Q211.3906,41.9375 210.75,42.0859 Q210.1094,42.2344 209.4063,42.2344 Q206.9063,42.2344 205.5859,40.5859 Q204.2656,38.9375 204.2656,35.8125 Q204.2656,32.6875 205.5859,31.0313 Q206.9063,29.375 209.4063,29.375 Q210.1094,29.375 210.7578,29.5313 Q211.4063,29.6875 211.9688,29.9844 L211.9688,32.7031 Q211.3438,32.125 210.75,31.8516 Q210.1563,31.5781 209.5313,31.5781 Q208.1875,31.5781 207.5,32.6484 Q206.8125,33.7188 206.8125,35.8125 Q206.8125,37.9063 207.5,38.9766 Q208.1875,40.0469 209.5313,40.0469 Q210.1563,40.0469 210.75,39.7734 Q211.3438,39.5 211.9688,38.9219 L211.9688,41.6406 Z "/><text fill="#000000" font-family="sans-serif" font-size="12" lengthAdjust="spacingAndGlyphs" textLength="23" x="223" y="40.1543">Foo</text><line style="stroke: #A80036; stroke-width: 1.5;" x1="195" x2="248" y1="52" y2="52"/><line style="stroke: #A80036; stroke-width: 1.5;" x1="195" x2="248" y1="60" y2="60"/><polygon fill="#FBFB77" filter="url(#f1xs8vr9x177tr)" points="6,31.5,6,56.6328,159,56.6328,159,41.5,149,31.5,6,31.5" style="stroke: #A80036; stroke-width: 1.0;"/><polygon fill="#FBFB77" points="6,31.5,6,56.6328,159,56.6328,159,49.5,193.694,44,159,41.5,159,41.5,149,31.5,6,31.5" style="stroke: #A80036; stroke-width: 1.0;"/><line style="stroke: #A80036; stroke-width: 1.0;" x1="149" x2="149" y1="31.5" y2="41.5"/><line style="stroke: #A80036; stroke-width: 1.0;" x1="159" x2="149" y1="41.5" y2="41.5"/><text fill="#000000" font-family="sans-serif" font-size="13" lengthAdjust="spacingAndGlyphs" textLength="132" x="12" y="48.5669">On last defined class</text><!--class Object--><rect fill="#FEFECE" filter="url(#f1xs8vr9x177tr)" height="48" id="Object" style="stroke: #A80036; stroke-width: 1.5;" width="72" x="327.5" y="140"/><ellipse cx="342.5" cy="156" fill="#ADD1B2" rx="11" ry="11" style="stroke: #A80036; stroke-width: 1.0;"/><path d="M345.4688,161.6406 Q344.8906,161.9375 344.25,162.0859 Q343.6094,162.2344 342.9063,162.2344 Q340.4063,162.2344 339.0859,160.5859 Q337.7656,158.9375 337.7656,155.8125 Q337.7656,152.6875 339.0859,151.0313 Q340.4063,149.375 342.9063,149.375 Q343.6094,149.375 344.2578,149.5313 Q344.9063,149.6875 345.4688,149.9844 L345.4688,152.7031 Q344.8438,152.125 344.25,151.8516 Q343.6563,151.5781 343.0313,151.5781 Q341.6875,151.5781 341,152.6484 Q340.3125,153.7188 340.3125,155.8125 Q340.3125,157.9063 341,158.9766 Q341.6875,160.0469 343.0313,160.0469 Q343.6563,160.0469 344.25,159.7734 Q344.8438,159.5 345.4688,158.9219 L345.4688,161.6406 Z "/><text fill="#000000" font-family="sans-serif" font-size="12" lengthAdjust="spacingAndGlyphs" textLength="40" x="356.5" y="160.1543">Object</text><line style="stroke: #A80036; stroke-width: 1.5;" x1="328.5" x2="398.5" y1="172" y2="172"/><line style="stroke: #A80036; stroke-width: 1.5;" x1="328.5" x2="398.5" y1="180" y2="180"/><polygon fill="#FBFB77" filter="url(#f1xs8vr9x177tr)" points="284.5,13.5,284.5,74.7188,442.5,74.7188,442.5,23.5,432.5,13.5,284.5,13.5" style="stroke: #A80036; stroke-width: 1.0;"/><polygon fill="#FBFB77" points="284.5,13.5,284.5,74.7188,359.5,74.7188,363.5,139.9332,367.5,74.7188,442.5,74.7188,442.5,23.5,432.5,13.5,284.5,13.5" style="stroke: #A80036; stroke-width: 1.0;"/><line style="stroke: #A80036; stroke-width: 1.0;" x1="432.5" x2="432.5" y1="13.5" y2="23.5"/><line style="stroke: #A80036; stroke-width: 1.0;" x1="442.5" x2="432.5" y1="23.5" y2="23.5"/><text fill="#000000" font-family="sans-serif" font-size="13" lengthAdjust="spacingAndGlyphs" textLength="45" x="290.5" y="36.3872">In java,</text><text fill="#000000" font-family="sans-serif" font-size="18" lengthAdjust="spacingAndGlyphs" textLength="52" x="339.5" y="35.208">every</text><text fill="#000000" font-family="sans-serif" font-size="13" lengthAdjust="spacingAndGlyphs" textLength="0" x="395.5" y="36.3872"/><text fill="#000000" font-family="sans-serif" font-size="13" lengthAdjust="spacingAndGlyphs" text-decoration="underline" textLength="32" x="395.5" y="36.3872">class</text><line style="stroke: #000000; stroke-width: 1.0;" x1="395.5" x2="427.5" y1="38.3872" y2="38.3872"/><text fill="#000000" font-family="sans-serif" font-size="13" font-weight="bold" lengthAdjust="spacingAndGlyphs" textLength="59" x="290.5" y="51.52">extends</text><text fill="#000000" font-family="sans-serif" font-size="13" font-style="italic" lengthAdjust="spacingAndGlyphs" textLength="23" x="290.5" y="66.6528">this</text><text fill="#000000" font-family="sans-serif" font-size="13" lengthAdjust="spacingAndGlyphs" textLength="28" x="317.5" y="66.6528">one.</text><polygon fill="#FBFB77" filter="url(#f1xs8vr9x177tr)" points="477.5,8,477.5,79.6953,1571.5,79.6953,1571.5,18,1561.5,8,477.5,8" style="stroke: #A80036; stroke-width: 1.0;"/><line style="stroke: #A80036; stroke-width: 1.0;" x1="1561.5" x2="1561.5" y1="8" y2="18"/><line style="stroke: #A80036; stroke-width: 1.0;" x1="1571.5" x2="1561.5" y1="18" y2="18"/><text fill="#000000" font-family="sans-serif" font-size="13" lengthAdjust="spacingAndGlyphs" textLength="72" x="483.5" y="25.0669">This note is</text><text fill="#000000" font-family="sans-serif" font-size="13" lengthAdjust="spacingAndGlyphs" text-decoration="underline" textLength="26" x="559.5" y="25.0669">also</text><line style="stroke: #000000; stroke-width: 1.0;" x1="559.5" x2="585.5" y1="27.0669" y2="27.0669"/><text fill="#4169E1" font-family="sans-serif" font-size="13" font-weight="bold" lengthAdjust="spacingAndGlyphs" textLength="76" x="483.5" y="40.1997">on several</text><text fill="#000000" font-family="sans-serif" font-size="13" lengthAdjust="spacingAndGlyphs" text-decoration="line-through" textLength="37" x="483.5" y="55.3325">words</text><text fill="#000000" font-family="sans-serif" font-size="13" lengthAdjust="spacingAndGlyphs" textLength="29" x="524.5" y="55.3325">lines</text><text fill="#000000" font-family="sans-serif" font-size="13" lengthAdjust="spacingAndGlyphs" textLength="133" x="483.5" y="71.6294">And this is hosted by</text><text fill="#000000" font-family="monospace" font-size="14" lengthAdjust="spacingAndGlyphs" textLength="936" x="620.5" y="71.3936">(File not found: /media/jmfavre/Windows/DEV/ScribesZone/PyUseOCL/pyuseocl/plantuml/sandbox/./members/sourceforge.jpg)</text><!--
@startuml

class Foo
note left: On last defined class

note top of Object
  In java, <size:18>every</size> <u>class</u>
  <b>extends</b>
  <i>this</i> one.
end note

note as N1
  This note is <u>also</u>
  <b><color:royalBlue>on several</color>
  <s>words</s> lines
  And this is hosted by <img:sourceforge.jpg>
end note

@enduml

PlantUML version 1.2017.15(Mon Jul 03 18:45:34 CEST 2017)
(GPL source distribution)
Java Runtime: Java(TM) SE Runtime Environment
JVM: Java HotSpot(TM) 64-Bit Server VM
Java Version: 1.8.0_101-b13
Operating System: Linux
OS Version: 4.4.0-71-generic
Default Encoding: UTF-8
Language: en
Country: US
--></g></svg>